<?xml version="1.0" standalone="no"?>
<!DOCTYPE svg PUBLIC "-//W3C//DTD SVG 1.1//EN" "http://www.w3.org/Graphics/SVG/1.1/DTD/svg11.dtd" >
<svg xmlns="http://www.w3.org/2000/svg">
<metadata>Generated by IcoMoon</metadata>
<defs>
<font id="icomoon" horiz-adv-x="1024">
<font-face units-per-em="1024" ascent="960" descent="-64" />
<missing-glyph horiz-adv-x="1024" />
<glyph unicode="&#x20;" horiz-adv-x="512" d="" />
<glyph unicode="&#xe600;" glyph-name="NAS" d="M842.524 852.139c0 0-52.452-34.020-165.66-48.128-53.931-5.916-93.298 7.054-140.060 22.756-51.883 18.432-106.268 36.978-183.524 26.852-106.837-12.971-170.894-53.134-205.255-79.986l-4.779 10.354-1.252 1.365c0.228 7.623 0.455 15.36-3.186 21.959-9.557 20.821-33.564 30.72-54.386 21.049-20.821-9.557-30.72-33.564-21.049-54.386 3.641-6.485 7.282-12.971 14.791-18.432l1.252-1.365 336.1-762.084c8.42-16.953 28.558-25.259 45.625-16.953 3.868 1.138 6.485 3.641 9.102 6.144 10.695 9.899 15.019 26.396 7.737 39.481l-114.688 270.222c19.456 5.803 41.301 8.761 63.26 11.947 73.387 8.988 121.515-5.461 169.643-19.911 44.373-12.971 93.753-28.786 160.654-20.935 84.878 9.899 141.198 47.673 173.056 77.255 14.564 13.653 23.893 24.804 25.259 28.558l8.306 15.132-63.26 510.635-57.685-41.529zM728.292 475.534l-15.929 133.689c73.5 14.108 133.234 37.66 156.672 47.104l17.18-132.551c-13.084-7.168-72.932-33.223-157.924-48.242zM278.756 479.403c24.69 10.695 55.751 19.911 97.052 26.169l18.204-141.54c-21.959-3.186-39.936-7.623-58.14-12.174l-57.116 127.545zM220.501 610.93l-45.17 101.376c4.21 11.378 48.242 59.847 165.433 77.596l15.929-133.689c-63.147-9.33-108.772-29.582-136.192-45.284zM357.49 647.111c0 0 8.988 1.024 10.24 2.276 64.398 7.964 117.532-6.599 163.271-21.049 3.755-1.365 16.498-1.934 15.246-3.186l17.294-132.437c-1.252 1.365-8.875 1.593-12.629 2.958-46.876 15.701-102.628 30.379-167.026 22.414-1.365-1.252-10.24-2.276-10.24-2.276l-16.156 131.3zM565.817 479.858c39.367-12.857 81.124-23.324 134.030-16.156 10.24 2.276 28.331 4.096 28.331 4.096l15.929-133.689c0 0-14.108-3.413-21.959-3.186-52.679-7.168-92.046 5.803-132.551 17.408-3.755 1.365-8.875 1.593-10.126 2.844l-13.653 128.683zM547.84 629.134l-17.18 132.551c39.367-12.857 81.124-23.324 134.030-16.156 10.24 2.276 28.331 4.096 28.331 4.096l15.929-133.689c0 0-19.228-3.186-28.331-4.096-51.655-6.030-94.777 3.072-132.779 17.294z" />
<glyph unicode="&#xe601;" glyph-name="arrow-down" d="M510.976 112.128h1.024l467.968 468.992c12.288 12.288 12.288 31.744 0 43.008l-48.128 48.128c-12.288 12.288-31.744 12.288-43.008 0l-375.808-376.832h-1.024l-376.832 376.832c-12.288 12.288-31.744 12.288-43.008 0l-48.128-48.128c-12.288-12.288-12.288-31.744 0-43.008l466.944-468.992z" />
<glyph unicode="&#xe602;" glyph-name="arrow-up" d="M513.024 763.392h-1.024l-467.968-468.992c-12.288-12.288-12.288-31.744 0-43.008l48.128-48.128c12.288-12.288 31.744-12.288 43.008 0l376.832 376.832h1.024l376.832-376.832c12.288-12.288 31.744-12.288 43.008 0l48.128 48.128c12.288 12.288 12.288 31.744 0 43.008l-467.968 468.992z" />
<glyph unicode="&#xe603;" glyph-name="CBB" d="M103.424 318.976c0 182.272 148.48 330.752 330.752 330.752 144.384 0 267.264-93.184 312.32-222.208l269.312 91.136-1005.568 338.944v-678.912l109.568 36.864c-10.24 32.768-16.384 67.584-16.384 103.424zM435.2 571.904c-145.408 0-264.192-118.784-264.192-264.192s118.784-264.192 264.192-264.192 264.192 117.76 264.192 263.168c0 146.432-118.784 265.216-264.192 265.216zM347.136 84.48c-21.504 30.72-37.888 68.608-49.152 104.448-1.024 3.072-2.048 13.312-3.072 13.312 0 0-1.024 0-1.024 0h-1.024c-3.072 0-6.144-4.096-9.216-5.12-24.576-4.096-34.816-23.552-38.912-33.792-8.192 10.24-15.36 21.504-21.504 32.768 8.192 11.264 19.456 19.456 31.744 25.6 10.24 5.12 20.48 7.168 31.744 8.192-3.072 13.312-4.096 26.624-6.144 39.936-19.456 3.072-36.864 6.144-51.2 10.24-13.312 4.096-23.552 8.192-32.768 12.288 0 4.096 0 9.216 0 13.312 0 10.24 1.024 20.48 2.048 30.72 4.096-5.12 18.432-13.312 45.056-21.504 11.264-3.072 22.528-6.144 43.008-8.192 0 1.024 0 3.072 0 4.096 0 17.408-3.072 35.84 0 53.248-33.792 9.216-53.248 33.792-61.44 53.248 7.168 14.336 15.36 27.648 25.6 40.96v-1.024c0-2.048 3.072-45.056 38.912-56.32 11.264 46.080 29.696 88.064 55.296 128 18.432 7.168 36.864 12.288 57.344 15.36-35.84-41.984-62.464-92.16-75.776-146.432 33.792 3.072 63.488 21.504 98.304 43.008 8.192 5.12 15.36 10.24 23.552 14.336 14.336 8.192 29.696 15.36 46.080 21.504 19.456 6.144 38.912 10.24 58.368 11.264 4.096 0 9.216 0 13.312 0h1.024c9.216 0 17.408 0 25.6-2.048 18.432-16.384 34.816-34.816 48.128-56.32l-3.072 2.048c-12.288 8.192-25.6 13.312-41.984 16.384-9.216 2.048-19.456 3.072-29.696 3.072-12.288 0-25.6-1.024-37.888-4.096-21.504-4.096-40.96-12.288-59.392-23.552-8.192-5.12-15.36-9.216-22.528-14.336-39.936-24.576-76.8-49.152-124.928-49.152-2.048-16.384-4.096-32.768-4.096-49.152 0-3.072 0-6.144 0-9.216 25.6-2.048 53.248-4.096 83.968-4.096 114.688 0 231.424 17.408 271.36 39.936l1.024 1.024c1.024-10.24 2.048-21.504 2.048-32.768 0-2.048 0-4.096 0-7.168-58.368-24.576-164.864-32.768-195.584-34.816-26.624-2.048-53.248-3.072-78.848-3.072-3.072 0-6.144 0-9.216 0-25.6 0-49.152 1.024-71.68 3.072 1.024-12.288 4.096-25.6 6.144-37.888 53.248-9.216 98.304-37.888 122.88-53.248l4.096-3.072c11.264-7.168 23.552-15.36 37.888-22.528 23.552-12.288 45.056-17.408 66.56-17.408 14.336 0 29.696 3.072 44.032 8.192l12.288 4.096c-18.432-19.456-38.912-35.84-62.464-49.152-50.176 2.048-90.112 27.648-116.736 45.056l-5.12 5.12-3.072 2.048c-18.432 12.288-52.224 33.792-91.136 44.032 2.048-6.144 4.096-12.288 7.168-18.432 14.336-34.816 33.792-66.56 58.368-96.256l4.096-4.096c-21.504 2.048-39.936 7.168-58.368 14.336z" />
<glyph unicode="&#xe604;" glyph-name="CFB" d="M135.168 580.096c3.072 16.384 1.024 16.384 12.288 44.032s41.984 55.296 76.8 66.56c34.816 11.264 75.776 13.312 102.4 13.312 49.152 0 191.488-21.504 302.080-109.568 69.632-55.296 125.952-129.024 132.096-161.792l252.928 89.088-1003.52 338.944v-676.864l171.008 56.32c-44.032 100.352-61.44 264.192-46.080 339.968zM640 505.344c-138.24 140.288-373.76 132.096-414.72 92.16-5.12-4.096-9.216-11.264-12.288-20.48 0 1.024 0 1.024 0 1.024-3.072-8.192-7.168-19.456-9.216-32.768-15.36-75.776-5.12-211.968 69.632-318.464 0 0 1.024-1.024 1.024-1.024 1.024-2.048 2.048-3.072 3.072-5.12 1.024-1.024 1.024-2.048 2.048-2.048 1.024-1.024 2.048-3.072 3.072-4.096s2.048-2.048 2.048-3.072c1.024-1.024 2.048-2.048 3.072-3.072s2.048-2.048 3.072-3.072c1.024-1.024 2.048-2.048 2.048-3.072 1.024-1.024 2.048-3.072 3.072-4.096s2.048-2.048 2.048-3.072c1.024-1.024 3.072-3.072 4.096-4.096s1.024-1.024 2.048-2.048c2.048-2.048 4.096-4.096 6.144-6.144s5.12-5.12 7.168-7.168c1.024-1.024 2.048-2.048 4.096-3.072 1.024-1.024 2.048-2.048 3.072-3.072 2.048-2.048 4.096-3.072 5.12-5.12 0 0 0 0 0 0 87.040-75.776 196.608-100.352 277.504-101.376 47.104 0 88.064 11.264 102.4 17.408v0c6.144 2.048 11.264 6.144 15.36 10.24 46.080 45.056 53.248 275.456-84.992 414.72zM443.392 577.024l2.048-1.024c10.24-4.096 19.456-9.216 28.672-13.312 7.168 3.072 16.384 7.168 24.576 8.192h2.048l27.648-20.48-8.192-2.048c-4.096-1.024-8.192-3.072-12.288-4.096 8.192-5.12 15.36-10.24 22.528-16.384 7.168 3.072 12.288 4.096 18.432 5.12h2.048l26.624-23.552-7.168-2.048c-3.072-1.024-7.168-2.048-11.264-4.096 6.144-5.12 11.264-11.264 18.432-17.408 7.168 3.072 15.36 5.12 21.504 5.12h2.048l21.504-26.624-6.144-2.048c-4.096-1.024-8.192-3.072-13.312-5.12 6.144-7.168 13.312-15.36 19.456-23.552 6.144 2.048 12.288 4.096 18.432 4.096h2.048l25.6-23.552-7.168-2.048c-5.12-1.024-11.264-4.096-18.432-6.144 5.12-8.192 11.264-14.336 15.36-22.528 6.144 2.048 12.288 4.096 16.384 3.072h2.048l17.408-26.624-6.144-2.048c-4.096-1.024-9.216-3.072-13.312-4.096 4.096-8.192 8.192-16.384 11.264-22.528l1.024-3.072-37.888-25.6-2.048 4.096c-4.096 7.168-8.192 15.36-13.312 24.576-5.12-4.096-10.24-8.192-15.36-12.288l-4.096-3.072-17.408 28.672 2.048 2.048c5.12 5.12 10.24 10.24 16.384 14.336-5.12 8.192-9.216 15.36-14.336 22.528-4.096-3.072-8.192-7.168-12.288-11.264-2.048-1.024-3.072-3.072-5.12-4.096l-3.072-3.072-20.48 26.624 3.072 3.072c5.12 5.12 12.288 11.264 18.432 16.384-6.144 8.192-12.288 16.384-19.456 23.552-8.192-6.144-15.36-13.312-22.528-19.456l-3.072-4.096-20.48 28.672 2.048 2.048c5.12 6.144 12.288 13.312 18.432 18.432-7.168 7.168-14.336 14.336-20.48 19.456-6.144-5.12-13.312-11.264-18.432-16.384-2.048-2.048-3.072-3.072-5.12-4.096l-3.072-3.072-21.504 26.624 2.048 3.072c6.144 6.144 12.288 11.264 19.456 17.408-7.168 6.144-14.336 11.264-22.528 16.384-6.144-4.096-12.288-9.216-16.384-15.36l-3.072-4.096-23.552 24.576 3.072 3.072c3.072 3.072 6.144 6.144 10.24 10.24-9.216 4.096-18.432 9.216-29.696 14.336l-8.192 4.096 44.032 20.48z" />
<glyph unicode="&#xe605;" glyph-name="check-board" d="M770.844 548.921l-35.726 35.726c-5.234 5.234-14.222 5.234-19.911 0l-273.067-275.684-103.424 103.424c-5.234 5.234-14.222 5.234-19.911 0l-35.157-35.726c-5.234-5.234-5.234-14.222 0-19.911l157.582-157.582 329.728 329.728c5.234 5.916 5.234 14.336-0.114 20.025zM856.974 851.001h-213.22v-52.338h180.338c2.731 0 5.006-2.276 5.006-5.006v-769.593c0-2.731-2.276-5.006-5.006-5.006h-624.185c-2.731 0-5.006 2.276-5.006 5.006v769.593c0 2.731 2.276 5.006 5.006 5.006h175.445v52.338h-208.213c-13.54 0-24.576-11.036-24.576-24.576v-835.129c0-13.54 11.036-24.576 24.576-24.576h689.835c13.54 0 24.576 11.036 24.576 24.576v835.129c-0.114 13.54-11.036 24.576-24.576 24.576zM713.728 736.199c-24.007 9.216-98.19 34.702-108.772 41.756v62.236c0 51.655-41.188 94.663-92.956 95.232-52.224 0.569-95.004-41.87-95.004-93.98v-61.326c-9.671-7.964-81.92-34.816-105.586-44.601-4.665-1.934-8.306-5.916-9.785-10.809l-15.815-56.206c-3.072-10.468 4.665-21.049 15.701-21.049h424.391c11.15 0 19.001 10.923 15.474 21.504l-17.749 56.775c-1.593 4.779-5.234 8.647-9.899 10.468zM512 891.051c26.396 0 49.607-22.187 49.607-49.607s-22.187-48.583-49.607-48.583c-26.396 0-49.607 22.187-49.607 49.607s22.187 48.583 49.607 48.583z" />
<glyph unicode="&#xe606;" glyph-name="check" d="M1001.472 744.96l-69.632 69.632c-10.24 10.24-27.648 10.24-38.912 0l-532.48-537.6-201.728 201.728c-10.24 10.24-27.648 10.24-38.912 0l-68.608-69.632c-10.24-10.24-10.24-27.648 0-38.912l307.2-307.2 643.072 643.072c10.24 11.264 10.24 27.648 0 38.912z" />
<glyph unicode="&#xe607;" glyph-name="checkered-flag" d="M255.642 191.604l46.996-175.392c3.965-14.799-4.123-29.819-18.921-33.785s-29.313 4.999-33.278 19.798l-195.932 731.226c-13.796 5.148-24.978 16.667-29.078 31.971-6.735 25.134 8.174 50.976 33.321 57.715 25.134 6.734 50.98-8.188 57.715-33.322 4.166-15.547 0.045-31.367-9.654-42.767l10.623-39.643c26.266 30.139 85.064 81.92 196.352 111.74 74.541 19.973 132.197 8.791 187.928-2.040 53.883-10.458 104.799-20.341 170.205-2.816 133.096 35.663 185.37 84.399 185.896 84.89l15.361 15.333 127.014-474.024-0.965-4.385c-2.007-3.838-49.016-93.991-179.88-129.056-61.948-16.599-110.536-8.778-161.989-0.494-56.744 9.132-115.42 18.587-200.284-4.152-136.769-36.648-189.597-95.481-201.43-110.798zM374.228 479.826c-129.607-38.295-168.337-102.55-166.225-110.431l37.337-139.347c-3.706 13.832 52.764 64.084 169.199 99.339l-40.311 150.439zM780.94 341.605c8.756 2.346 20.362 5.96 20.187 6.612l-38.173 142.466c0.104-0.392-19.655-5.993-30.617-8.931-56.375-15.106-104.002-10.663-147.987-3.106l36.635-136.723c0.388-1.448 9.141-0.655 12.753-1.24 46.163-7.436 91.636-13.966 147.202 0.923zM570.665 493.549c3.422-0.608 9.803-0.409 10.177-1.805l-37.782 141.004c-0.528 1.971-9.539 1.669-14.298 2.519-52.268 9.185-114.546 16.471-181.896-1.575-1.592-0.427-12.919-3.517-12.916-3.531l38.017-141.878c-0.004 0.013 11.322 3.104 12.915 3.531 69.282 18.564 132.559 11.098 185.783 1.736zM760.604 499.44c90.059 29.293 149.955 66.756 161.75 74.937l-37.817 141.134c-24.281-13.779-84.821-48.841-161.942-74.218l38.009-141.853zM164.641 531.225c-4.427 16.521 50.417 72.841 167.099 107.17l-37.978 141.734c-129.593-38.347-168.407-102.288-166.264-110.288l37.143-138.616zM503.843 779.091l37.793-141.044c44.206-8.38 91.692-12.874 148.212 2.27 10.961 2.938 30.717 8.552 30.608 8.957l-38.006 141.839c0.105-0.391-19.67-5.984-30.62-8.918-56.362-15.102-104.006-10.65-147.987-3.105z" />
<glyph unicode="&#xe608;" glyph-name="chevron" d="M299.008 891.392h-285.696l225.28-443.392-225.28-443.392h285.696l224.256 446.464zM786.432 891.392h-285.696l225.28-443.392-225.28-443.392h285.696l224.256 446.464z" />
<glyph unicode="&#xe609;" glyph-name="ex-circle" d="M512 950.784c-277.504 0-501.76-224.256-501.76-501.76s224.256-501.76 501.76-501.76 501.76 224.256 501.76 501.76-224.256 501.76-501.76 501.76zM825.344 217.6c11.264-11.264 11.264-29.696 0-39.936l-44.032-44.032c-11.264-11.264-29.696-11.264-39.936 0l-228.352 228.352h-1.024l-227.328-228.352c-11.264-11.264-29.696-11.264-39.936 0l-44.032 44.032c-11.264 11.264-11.264 29.696 0 39.936l227.328 228.352v1.024l-234.496 233.472c-11.264 11.264-11.264 29.696 0 39.936l44.032 44.032c11.264 11.264 29.696 11.264 39.936 0l232.448-233.472h2.048l234.496 233.472c11.264 11.264 29.696 11.264 39.936 0l44.032-44.032c11.264-11.264 11.264-29.696 0-39.936l-233.472-233.472 228.352-229.376z" />
<glyph unicode="&#xe60a;" glyph-name="contests" d="M999.424 777.728v34.816h-159.744c1.024 21.504 2.048 41.984 2.048 63.488 0 27.648-144.384 50.176-325.632 50.176s-327.68-23.552-327.68-51.2c0-19.456 1.024-39.936 2.048-60.416h-164.864v-34.816c0-8.192 0-206.848 110.592-328.704 68.608-74.752 169.984-116.736 236.544-144.384 23.552-10.24 59.392-27.648 67.584-31.744s12.288-8.192 12.288-15.36c0-21.504-4.096-80.896-13.312-95.232-12.288-18.432-28.672-32.768-49.152-40.96-65.536-25.6-128-60.416-128-81.92 0-36.864 113.664-72.704 254.976-72.704s258.048 36.864 258.048 72.704c0 20.48-62.464 55.296-128 80.896-20.48 8.192-36.864 22.528-49.152 40.96-10.24 14.336-14.336 73.728-14.336 95.232 0 7.168 3.072 10.24 11.264 14.336 10.24 5.12 38.912 19.456 62.464 29.696 67.584 27.648 162.816 69.632 231.424 144.384 110.592 123.904 110.592 322.56 110.592 330.752zM187.392 498.176c-67.584 74.752-86.016 189.44-91.136 246.784h101.376c17.408-121.856 57.344-242.688 112.64-333.824-45.056 22.528-89.088 50.176-122.88 87.040zM837.632 495.104c-32.768-35.84-74.752-63.488-117.76-84.992 55.296 90.112 95.232 210.944 112.64 331.776h96.256c-5.12-56.32-23.552-172.032-91.136-246.784z" />
<glyph unicode="&#xe60b;" glyph-name="create-contest" d="M808.96 505.344c95.232 110.592 95.232 284.672 95.232 291.84v17.408c0 7.168-6.144 13.312-14.336 13.312h-141.312c1.024 19.456 2.048 37.888 2.048 57.344 0 24.576-116.736 45.056-280.576 45.056s-286.72-20.48-286.72-45.056c0-17.408 1.024-35.84 2.048-54.272h-145.408c-7.168 0-13.312-6.144-14.336-13.312v-17.408c0-7.168 0-187.392 100.352-296.96 61.44-67.584 153.6-105.472 214.016-130.048 21.504-9.216 53.248-26.624 53.248-41.984 0-77.824-26.624-124.928-46.080-133.12-59.392-23.552-109.568-46.080-109.568-65.536v-32.768c0-36.864 100.352-69.632 226.304-69.632 24.576 0 49.152 1.024 71.68 4.096 49.152-43.008 113.664-69.632 184.32-69.632 152.576 0 277.504 124.928 277.504 277.504 1.024 122.88-78.848 226.304-188.416 263.168zM173.056 545.28c-57.344 63.488-75.776 158.72-81.92 212.992-1.024 5.12 4.096 10.24 9.216 10.24h91.136c15.36-109.568 61.44-230.4 111.616-312.32-38.912 20.48-100.352 55.296-130.048 89.088zM742.4 765.44h87.040c5.12 0 10.24-5.12 9.216-10.24-6.144-54.272-23.552-149.504-80.896-212.992-7.168-7.168-15.36-15.36-24.576-22.528-4.096 0-8.192 0-12.288 0-20.48 0-39.936-2.048-58.368-6.144 35.84 74.752 67.584 166.912 79.872 251.904zM720.896 5.632c-130.048 0-236.544 106.496-236.544 236.544 0 131.072 106.496 236.544 236.544 236.544s236.544-106.496 236.544-236.544c0-130.048-106.496-236.544-236.544-236.544zM845.824 269.824h-98.304v98.304c0 7.168-6.144 13.312-13.312 13.312h-25.6c-7.168 0-13.312-6.144-13.312-13.312v-98.304h-98.304c-7.168 0-13.312-6.144-13.312-13.312v-25.6c0-7.168 6.144-13.312 13.312-13.312h98.304v-98.304c0-7.168 6.144-13.312 13.312-13.312h25.6c7.168 0 13.312 6.144 13.312 13.312v98.304h98.304c7.168 0 13.312 6.144 13.312 13.312v25.6c0 6.144-6.144 13.312-13.312 13.312z" />
<glyph unicode="&#xe60c;" glyph-name="create-lineup" d="M348.16 655.872h179.2c17.408 0 30.72 13.312 30.72 30.72s-13.312 30.72-30.72 30.72h-179.2c-17.408 0-30.72-13.312-30.72-30.72s13.312-30.72 30.72-30.72zM892.928 480.768v178.176c0 10.24-4.096 21.504-11.264 28.672l-190.464 200.704c-8.192 8.192-18.432 13.312-30.72 13.312h-430.080c-36.864 0-66.56-29.696-66.56-66.56v-768c0-36.864 29.696-66.56 66.56-66.56h418.816c19.456-4.096 39.936-7.168 61.44-7.168 152.576 0 277.504 124.928 277.504 277.504 0 84.992-36.864 159.744-95.232 209.92zM242.688 52.736c-15.36 0-27.648 12.288-27.648 27.648v742.4c0 15.36 12.288 27.648 27.648 27.648h400.384v-139.264c0-37.888 30.72-69.632 68.608-69.632h130.048v-125.952c-34.816 18.432-74.752 30.72-116.736 32.768-5.12 0-28.672 1.024-34.816 1.024h-345.088c-17.408 0-30.72-13.312-30.72-30.72s13.312-30.72 30.72-30.72h193.536c-34.816-27.648-63.488-64.512-81.92-106.496h-112.64c-17.408 0-30.72-13.312-30.72-30.72s13.312-30.72 30.72-30.72h94.208c-3.072-16.384-4.096-32.768-4.096-49.152s2.048-33.792 4.096-49.152h-94.208c-17.408 0-30.72-13.312-30.72-30.72s13.312-30.72 30.72-30.72h112.64c18.432-43.008 48.128-79.872 84.992-108.544h-299.008zM710.656 35.328c-130.048 0-236.544 106.496-236.544 236.544s106.496 236.544 236.544 236.544 236.544-106.496 236.544-236.544c0-130.048-105.472-236.544-236.544-236.544zM836.608 298.496h-98.304v98.304c0 7.168-6.144 13.312-13.312 13.312h-25.6c-7.168 0-13.312-6.144-13.312-13.312v-98.304h-98.304c-7.168 0-13.312-6.144-13.312-13.312v-25.6c0-7.168 6.144-13.312 13.312-13.312h98.304v-98.304c0-7.168 6.144-13.312 13.312-13.312h25.6c7.168 0 13.312 6.144 13.312 13.312v98.304h98.304c7.168 0 13.312 6.144 13.312 13.312v25.6c0 7.168-6.144 13.312-13.312 13.312z" />
<glyph unicode="&#xe60d;" glyph-name="early" d="M739.328 448c0-124.984-101.778-226.304-227.328-226.304s-227.328 101.32-227.328 226.304c0 124.984 101.778 226.304 227.328 226.304s227.328-101.32 227.328-226.304zM512 753.152c25.6 0 47.104 20.48 47.104 47.104v103.424c0 25.6-21.504 46.080-47.104 46.080s-47.104-20.48-47.104-47.104v-102.4c0-26.624 21.504-47.104 47.104-47.104zM512 142.848c-25.6 0-47.104-20.48-47.104-47.104v-103.424c0-25.6 20.48-47.104 47.104-47.104s47.104 20.48 47.104 47.104v102.4c0 27.648-21.504 48.128-47.104 48.128zM205.824 448c0 25.6-20.48 47.104-47.104 47.104h-103.424c-25.6 0-47.104-20.48-47.104-47.104s20.48-47.104 47.104-47.104h103.424c25.6 0 47.104 21.504 47.104 47.104zM968.704 495.104h-103.424c-25.6 0-47.104-20.48-47.104-47.104s20.48-47.104 47.104-47.104h103.424c25.6 0 47.104 20.48 47.104 47.104s-21.504 47.104-47.104 47.104zM768 655.872c12.288 0 24.576 5.12 32.768 13.312l67.584 66.56c18.432 18.432 18.432 48.128 0 66.56s-48.128 18.432-66.56 0l-67.584-66.56c-18.432-18.432-18.432-48.128 0-66.56 9.216-8.192 21.504-13.312 33.792-13.312zM224.256 226.816l-67.584-66.56c-18.432-18.432-18.432-48.128 0-66.56 8.192-8.192 20.48-13.312 32.768-13.312s24.576 5.12 32.768 13.312l67.584 66.56c18.432 18.432 18.432 48.128 0 66.56s-48.128 18.432-65.536 0zM224.256 669.184c8.192-8.192 20.48-13.312 32.768-13.312s24.576 5.12 32.768 13.312c18.432 18.432 18.432 48.128 0 66.56l-67.584 66.56c-18.432 18.432-48.128 18.432-66.56 0s-18.432-48.128 0-66.56l68.608-66.56zM799.744 226.816c-18.432 18.432-48.128 18.432-66.56 0s-18.432-48.128 0-66.56l67.584-66.56c8.192-8.192 20.48-13.312 32.768-13.312s24.576 5.12 32.768 13.312c18.432 18.432 18.432 48.128 0 66.56l-66.56 66.56z" />
<glyph unicode="&#xe60e;" glyph-name="error" d="M512 924.16c-263.168 0-476.16-212.992-476.16-476.16s212.992-476.16 476.16-476.16 476.16 212.992 476.16 476.16-212.992 476.16-476.16 476.16zM124.928 448c0 212.992 174.080 387.072 387.072 387.072 89.088 0 172.032-30.72 237.568-81.92l-543.744-542.72c-51.2 65.536-80.896 148.48-80.896 237.568zM512 60.928c-88.064 0-169.984 30.72-235.52 79.872l542.72 542.72c50.176-65.536 80.896-147.456 80.896-235.52-1.024-214.016-175.104-387.072-388.096-387.072z" />
<glyph unicode="&#xe60f;" glyph-name="ex" d="M603.136 435.712l347.136 347.136c11.264 11.264 11.264 30.72 0 41.984l-46.080 46.080c-11.264 11.264-30.72 11.264-41.984 0l-348.16-347.136h-1.024l-346.112 347.136c-11.264 11.264-30.72 11.264-41.984 0l-46.080-46.080c-11.264-11.264-11.264-30.72 0-41.984l347.136-347.136v-1.024l-339.968-340.992c-11.264-11.264-11.264-30.72 0-41.984l46.080-46.080c11.264-11.264 30.72-11.264 41.984 0l340.992 340.992h1.024l340.992-340.992c11.264-11.264 30.72-11.264 41.984 0l46.080 46.080c11.264 11.264 11.264 30.72 0 41.984l-342.016 342.016c-1.024-1.024-1.024-1.024 0 0z" />
<glyph unicode="&#xe610;" glyph-name="export" d="M977.031 687.436l-200.61 210.315c-8.627 8.627-20.491 14.020-32.355 14.020h-377.492c-38.829 0-70.106-31.277-70.106-70.106v-206.003c0-6.471 5.393-11.864 11.864-11.864h31.277c6.471 0 11.864 5.393 11.864 11.864v193.061c0 16.179 12.942 29.121 29.121 29.121h346.212v-146.683c0-39.907 33.436-73.34 73.34-73.34h135.897v-592.122c0-15.101-12.942-28.043-29.121-28.043h-527.409c-16.179 0-29.121 12.942-29.121 29.121v195.217c0 6.471-5.393 11.864-11.864 11.864h-31.277c-6.471 0-11.864-5.393-11.864-11.864v-209.237c0-38.829 31.277-70.106 70.106-70.106h552.215c38.829 0 70.106 31.277 70.106 70.106v624.477c1.078 10.786-3.237 21.572-10.786 30.199zM7.42 448v0l162.859-160.703c5.393-4.315 12.942-5.393 19.413 1.078l38.829 37.748c4.315 5.393 5.393 14.020-1.078 19.413l-64.713 62.557h486.424c6.471 0 14.020 5.393 12.942 14.020v55.005c0 6.471-5.393 14.020-14.020 12.942l-484.268-2.156 61.476 63.635c4.315 5.393 5.393 12.942-1.078 19.413l-37.748 38.829c-5.393 4.315-12.942 5.393-19.413-1.078l-159.625-160.703z" />
<glyph unicode="&#xe611;" glyph-name="friend-check" d="M499.598 241.38c0 84.537 45.511 158.72 113.436 199.111-6.144 3.3-12.402 6.485-18.546 9.671-14.45 7.396-21.732 50.176-21.732 50.176 3.413 34.475 8.306 51.541 12.971 85.788 0.569 3.527 3.413 7.737 6.485 9.557 23.893 14.564 45.966 72.363 35.612 96.825-2.048 4.779-8.988 7.737-13.653 11.378 1.82 0.569-0.569 1.138 1.252 1.593 0 29.582 3.527 59.278 1.707 88.86-3.186 54.158-57.458 103.538-110.364 111.275-7.964 1.252-26.396 4.779-40.846 4.779-14.108 0-30.151-3.413-40.846-4.779-49.266-6.599-107.179-57.23-110.364-111.275-1.707-29.468 1.707-59.278 1.707-88.86 1.82-0.569-0.569-1.138 1.252-1.593-4.665-3.755-11.605-6.599-13.653-11.378-10.354-24.462 11.833-82.261 35.612-96.825 3.072-1.82 5.916-6.030 6.485-9.557 4.665-34.247 9.671-51.314 12.971-85.788 0 0-7.282-42.78-21.732-50.176-62.464-32.085-123.108-68.153-186.937-97.28-53.248-24.235-70.656-37.66-70.542-91.364l0.569-48.583 0.569-40.277c0-18.318 15.588-35.612 31.516-35.612 63.147 0 245.305 0 411.876 0-15.815 31.516-24.804 66.901-24.804 104.334zM951.296 301.227c5.575-19.797 8.647-40.619 8.647-62.123 0-125.497-102.059-227.556-227.556-227.556s-227.556 102.059-227.556 227.556 102.059 227.556 227.556 227.556c56.206 0 107.748-20.48 147.456-54.386l27.193 28.558c-46.876 40.619-107.861 65.195-174.649 65.195-147.228 0-266.923-119.694-266.923-266.923s119.694-266.923 266.923-266.923 266.923 119.694 266.923 266.923c0 32.654-5.916 63.943-16.725 92.956l-31.289-30.834zM971.321 365.397c5.803 5.803 5.803 15.474 0 22.187l-22.187 22.187c-5.803 5.803-15.474 5.803-22.187 0l-187.051-188.985-79.986 79.986c-5.803 5.803-15.474 5.803-22.187 0l-22.187-22.073c-5.803-5.803-5.803-15.474 0-22.187l123.449-123.449 232.334 232.334z" />
<glyph unicode="&#xe612;" glyph-name="garaged" d="M490.136 706.729h88.469v43.475h90.266c0 0 22.306 1.19 22.306 44.143s-22.466 44.672-22.466 44.672l-291.046 0.486c0 0-22.605-4.462-22.605-44.166s22.812-44.811 22.812-44.811h112.473l-0.204-43.801zM619.438 438.467c1.698-3.275 1.422-7.226-0.7-10.243l-118.413-167.75c-1.884-2.664-4.914-4.164-8.060-4.164-0.997 0-2.004 0.147-2.99 0.452-4.095 1.303-6.878 5.113-6.878 9.414v118.412h-69.073c-3.69 0-7.064 2.050-8.762 5.327-1.697 3.275-1.421 7.213 0.701 10.234l118.412 167.75c2.486 3.514 6.936 5.002 11.051 3.711 4.095-1.303 6.877-5.113 6.877-9.405v-118.412h69.073c3.69 0 7.066-2.053 8.762-5.327zM197.863 459.346h-44.047v88.567c0 0-1.378 23.474-46.594 23.474s-43.246-23.018-43.246-23.018v-290.717c0 0 0.63-22.774 43.943-22.774s44.602 22.792 44.602 22.792v110.733h45.444v-65.786c0 0-2.458-45.184 89.671-45.184l89.791-89.655h291.091l89.324 89.172c0 0 45.075-4.128 45.075 45.841v64.392h65.863v-109.382c0 0 3.133-22.306 47.741-22.306s43.518 22.954 43.518 22.954v290.602c0 0-1.634 23.395-44.935 23.395s-43.603-22.767-43.603-22.767v-90.609h-67.722v156.147c0 0-2.005 45.236-46.491 45.236s-379.052 0.14-379.052 0.14l-179.524-135.403-0.849-65.851z" />
<glyph unicode="&#xe613;" glyph-name="guaranteed" d="M1011.712 856.576c0 50.176-40.96 91.136-91.136 91.136h-817.152c-50.176 0-91.136-40.96-91.136-91.136v-817.152c0-50.176 40.96-91.136 91.136-91.136h817.152c50.176 0 91.136 40.96 91.136 91.136v817.152zM784.384 165.376c-75.776-25.6-151.552-37.888-238.592-37.888-97.28 0-168.96 28.672-222.208 84.992s-78.848 136.192-78.848 240.64c0 101.376 28.672 180.224 88.064 235.52 56.32 56.32 138.24 84.992 242.688 84.992 38.912 0 76.8-3.072 111.616-10.24s65.536-16.384 92.16-28.672l-56.32-135.168c-44.032 22.528-94.208 32.768-148.48 32.768-50.176 0-88.064-16.384-114.688-48.128-27.648-31.744-40.96-78.848-40.96-137.216s12.288-102.4 35.84-135.168c24.576-30.72 60.416-47.104 107.52-47.104 25.6 0 40.96 3.072 70.656 7.168v100.352h-120.832v136.192h272.384v-343.040z" />
<glyph unicode="&#xe614;" glyph-name="import" d="M968.704 685.568l-190.464 199.68c-8.192 8.192-19.456 13.312-30.72 13.312h-358.4c-36.864 0-66.56-29.696-66.56-66.56v-195.584c0-6.144 5.12-11.264 11.264-11.264h29.696c6.144 0 11.264 5.12 11.264 11.264v183.296c0 15.36 12.288 27.648 27.648 27.648h328.704v-139.264c0-37.888 31.744-69.632 69.632-69.632h129.024v-562.176c0-14.336-12.288-26.624-27.648-26.624h-500.736c-15.36 0-27.648 12.288-27.648 27.648v185.344c0 6.144-5.12 11.264-11.264 11.264h-29.696c-6.144 0-11.264-5.12-11.264-11.264v-198.656c0-36.864 29.696-66.56 66.56-66.56h524.288c36.864 0 66.56 29.696 66.56 66.56v592.896c1.024 10.24-3.072 20.48-10.24 28.672zM688.128 467.456v0l-154.624 152.576c-5.12 4.096-12.288 5.12-18.432-1.024l-36.864-35.84c-4.096-5.12-5.12-13.312 1.024-18.432l61.44-59.392h-461.824c-6.144 0-13.312-5.12-12.288-13.312v-52.224c0-6.144 5.12-13.312 13.312-12.288l459.776 2.048-58.368-60.416c-4.096-5.12-5.12-12.288 1.024-18.432l35.84-36.864c5.12-4.096 12.288-5.12 18.432 1.024l151.552 152.576z" />
<glyph unicode="&#xe615;" glyph-name="important" d="M998.4 155.136l-420.864 729.088c-14.336 23.552-38.912 37.888-65.536 37.888s-51.2-14.336-65.536-37.888l-420.864-729.088c-13.312-23.552-13.312-54.272 0-76.8 13.312-23.552 38.912-39.936 65.536-39.936h841.728c26.624 0 51.2 16.384 65.536 39.936 13.312 22.528 13.312 53.248 0 76.8zM512 111.104c-36.864 0-65.536 29.696-65.536 65.536 0 36.864 29.696 65.536 65.536 65.536s65.536-29.696 65.536-65.536c1.024-35.84-28.672-65.536-65.536-65.536zM567.296 337.408c-7.168-28.672-33.792-32.768-56.32-32.768v0c-25.6 0-47.104 11.264-53.248 34.816-8.192 27.648-31.744 217.088-31.744 270.336 0 58.368 36.864 103.424 86.016 103.424h3.072c53.248 0 83.968-53.248 83.968-103.424 0-48.128-23.552-240.64-31.744-272.384z" />
<glyph unicode="&#xe616;" glyph-name="info" d="M512 926.144c-263.872 0-478.144-214.272-478.144-478.144s214.272-478.144 478.144-478.144 478.144 214.272 478.144 478.144c1.984 263.872-213.28 478.144-478.144 478.144zM577.472 163.296c0-15.872-12.896-27.776-27.776-27.776h-75.392c-15.872 0-27.776 12.896-27.776 27.776v346.208c0 15.872 12.896 27.776 27.776 27.776h75.392c15.872 0 27.776-12.896 27.776-27.776v-346.208zM512 610.688c-43.648 0-78.368 34.72-78.368 78.368s34.72 78.368 78.368 78.368 78.368-34.72 78.368-78.368-34.72-78.368-78.368-78.368z" />
<glyph unicode="&#xe617;" glyph-name="key" d="M833.28 91.392l34.048 139.008c1.28 5.376 0 10.496-3.84 14.336s-9.216 5.376-14.336 3.84l-47.872-7.168c-5.376-1.28-10.496 0-14.336 3.84s-5.376 9.216-3.84 14.336l7.168 47.872c1.28 5.376 0 10.496-3.84 14.336s-9.216 5.376-14.336 3.84l-47.872-7.168c-5.376-1.28-10.496 0-14.336 3.84s-5.376 9.216-3.84 14.336l7.168 47.872c1.28 5.376 0 10.496-3.84 14.336l-96.512 96.256c36.096 85.76 19.712 188.672-50.432 258.816-93.696 93.696-243.2 93.696-335.36 1.28-92.416-92.416-94.976-244.48-2.56-336.896 62.208-62.208 151.296-81.92 227.328-63.488l277.76-277.76c5.888-5.888 14.336-5.376 20.992-6.656l65.536 2.56c7.424 2.048 15.872 10.496 17.152 18.432zM269.824 592.128c-33.536 33.536-33.536 87.040 0 120.576s87.040 33.536 120.576 0c33.536-33.536 33.536-87.040 0-120.576s-87.296-33.536-120.576 0zM763.136 111.616l-228.608 228.608c-5.888 5.888-3.328 17.664 3.328 24.32 5.888 5.888 18.432 9.216 24.32 3.328l228.608-228.608c5.888-5.888 3.328-17.664-3.328-24.32-6.656-6.4-18.432-9.216-24.32-3.328z" />
<glyph unicode="&#xe618;" glyph-name="late" d="M393.797 395.145c-89.373 177.785-25.947 391.127 139.345 493.954-80.724 7.688-163.37-6.727-241.211-46.128-221.030-109.554-310.403-378.634-198.927-597.742 109.554-220.069 378.634-307.52 597.742-197.966 77.841 38.44 139.345 97.061 180.668 166.253-180.668-72.075-390.166 4.805-477.617 181.629zM902.166 712.275c0 0-84.568-18.259-123.969-56.699s-60.543-121.086-60.543-121.086-20.181 86.49-56.699 123.969c-34.596 37.479-120.125 60.543-120.125 60.543s85.529 18.259 123.969 56.699c38.44 37.479 60.543 121.086 60.543 121.086s17.298-84.568 55.738-123.969c37.479-39.401 121.086-60.543 121.086-60.543zM979.046 467.22c0 0-39.401-6.727-57.66-23.064s-25.947-56.699-25.947-56.699-7.688 41.323-23.064 57.66c-15.376 16.337-56.699 25.947-56.699 25.947s39.401 6.727 57.66 23.064c18.259 16.337 25.947 56.699 25.947 56.699s6.727-39.401 23.064-57.66c18.259-18.259 56.699-25.947 56.699-25.947z" />
<glyph unicode="&#xe619;" glyph-name="lineups" d="M866.304 685.568l-190.464 199.68c-8.192 8.192-19.456 13.312-30.72 13.312h-430.080c-36.864 0-66.56-29.696-66.56-66.56v-768c0-36.864 29.696-66.56 66.56-66.56h595.968c36.864 0 66.56 29.696 66.56 66.56v592.896c0 10.24-4.096 20.48-11.264 28.672zM798.72 49.664h-571.392c-15.36 0-27.648 12.288-27.648 27.648v742.4c0 15.36 12.288 27.648 27.648 27.648h400.384v-139.264c0-37.888 30.72-69.632 68.608-69.632h130.048v-562.176c0-14.336-12.288-26.624-27.648-26.624zM332.8 656.896h179.2c17.408 0 30.72 13.312 30.72 30.72s-13.312 30.72-30.72 30.72h-179.2c-17.408 0-30.72-13.312-30.72-30.72s13.312-30.72 30.72-30.72zM694.272 380.416h-365.568c-17.408 0-30.72-13.312-30.72-30.72s13.312-30.72 30.72-30.72h365.568c17.408 0 30.72 13.312 30.72 30.72s-13.312 30.72-30.72 30.72zM694.272 219.648h-365.568c-17.408 0-30.72-13.312-30.72-30.72s13.312-30.72 30.72-30.72h365.568c17.408 0 30.72 13.312 30.72 30.72s-13.312 30.72-30.72 30.72zM694.272 550.4h-365.568c-17.408 0-30.72-13.312-30.72-30.72s13.312-30.72 30.72-30.72h365.568c17.408 0 30.72 13.312 30.72 30.72s-13.312 30.72-30.72 30.72z" />
<glyph unicode="&#xe61a;" glyph-name="live" d="M741.376 448c0-126.681-102.695-229.376-229.376-229.376s-229.376 102.695-229.376 229.376c0 126.681 102.695 229.376 229.376 229.376s229.376-102.695 229.376-229.376zM512 853.504c223.232 0 405.504-181.248 405.504-405.504s-181.248-405.504-405.504-405.504-405.504 181.248-405.504 405.504c0 223.232 182.272 405.504 405.504 405.504zM512 928.256c-265.216 0-480.256-215.040-480.256-480.256s215.040-480.256 480.256-480.256 480.256 215.040 480.256 480.256-215.040 480.256-480.256 480.256v0z" />
<glyph unicode="&#xe61b;" glyph-name="lobby" d="M921.6 472.576h-560.128c-22.528 0-40.96-18.432-40.96-40.96s18.432-40.96 40.96-40.96h560.128c22.528 0 40.96 18.432 40.96 40.96s-18.432 40.96-40.96 40.96zM921.6 188.928h-560.128c-22.528 0-40.96-18.432-40.96-40.96s18.432-40.96 40.96-40.96h560.128c22.528 0 40.96 18.432 40.96 40.96s-18.432 40.96-40.96 40.96zM361.472 683.52h560.128c22.528 0 40.96 18.432 40.96 40.96s-18.432 40.96-40.96 40.96h-560.128c-22.528 0-40.96-18.432-40.96-40.96s18.432-40.96 40.96-40.96zM153.6 822.784l21.504-67.584h71.68l-57.344-40.96 21.504-67.584-57.344 41.984-57.344-41.984 21.504 67.584-57.344 40.96h70.656zM153.6 529.92l21.504-67.584h71.68l-57.344-40.96 21.504-67.584-57.344 41.984-57.344-41.984 21.504 67.584-57.344 40.96h70.656zM153.6 246.272l21.504-67.584h71.68l-57.344-40.96 21.504-67.584-57.344 41.984-57.344-41.984 21.504 67.584-57.344 40.96h70.656z" />
<glyph unicode="&#xe61c;" glyph-name="MLB" d="M514.256 900.789c-248.367 0-450.365-201.997-450.365-450.365s201.997-450.365 450.365-450.365 450.365 201.997 450.365 450.365-201.997 450.365-450.365 450.365zM294.832 310.102c1.365 1.666 3.181 2.577 5.305 2.727 22.427 1.971 46.068 1.819 69.706-0.91 4.243-0.455 7.425-4.394 6.819-8.637l-8.637-77.284c-0.303-2.12-1.212-3.94-2.879-5.152-1.365-1.060-3.031-1.666-4.849-1.666-0.303 0-0.606 0-0.91 0-17.122 1.971-34.398 2.12-50.613 0.606-4.394-0.303-8.032 2.727-8.486 6.97l-7.123 77.435c-0.303 2.274 0.455 4.394 1.666 5.91zM284.529 531.95c-2.12 0.151-3.94 1.212-5.305 2.727s-1.971 3.637-1.819 5.758l7.123 77.435c0.455 4.243 4.243 7.273 8.486 6.97 16.215-1.515 33.641-1.212 50.613 0.606 2.12 0.151 4.092-0.303 5.758-1.666 1.666-1.212 2.577-3.181 2.879-5.152l8.637-77.284c0.455-4.243-2.577-8.183-6.819-8.637-13.184-1.515-26.367-2.274-39.247-2.274-10.001 0.151-20.307 0.606-30.308 1.515zM250.282 624.692l-25.912-73.344c-1.060-3.181-4.092-5.152-7.273-5.152-0.91 0-1.666 0.151-2.577 0.455-30.761 10.91-54.705 29.55-70.919 55.462-1.060 1.819-1.515 3.788-1.060 5.91 0.455 1.971 1.666 3.788 3.486 4.849l66.070 41.218c1.819 1.060 3.94 1.515 5.91 1.060s3.788-1.666 4.849-3.486c4.697-7.577 12.123-13.032 22.731-16.821 3.94-1.666 6.062-6.062 4.697-10.152zM394.845 636.057c16.517 4.849 33.338 11.215 49.854 18.942 3.94 1.819 8.486 0.151 10.305-3.788l32.732-70.617c0.91-1.819 0.91-3.94 0.303-5.91-0.758-1.971-2.12-3.486-4.092-4.394-20.76-9.699-41.976-17.578-62.735-23.791-0.758-0.151-1.515-0.303-2.12-0.303-1.365 0-2.577 0.303-3.788 0.91-1.819 1.060-3.181 2.727-3.788 4.697l-21.972 74.707c-1.212 4.092 1.212 8.333 5.305 9.546zM405.152 218.422l21.972 74.707c0.606 1.971 1.971 3.637 3.788 4.697s3.94 1.212 5.91 0.606c20.76-6.062 41.976-14.092 62.735-23.791 1.819-0.91 3.334-2.425 4.092-4.394s0.606-4.092-0.303-5.91l-32.732-70.617c-1.365-2.879-4.092-4.546-7.123-4.546-1.060 0-2.274 0.303-3.334 0.758-16.67 7.73-33.338 14.092-49.854 18.942-4.092 1.060-6.365 5.455-5.152 9.546zM490.163 670.304c-2.274 3.637-1.212 8.486 2.425 10.76s7.123 4.546 10.76 6.97c13.942 9.244 27.277 17.881 40.461 25.762 3.637 2.274 8.486 1.060 10.76-2.577l40.461-66.525c2.274-3.637 1.060-8.486-2.577-10.76-12.123-7.425-24.548-15.305-37.429-23.942-4.243-2.879-8.637-5.606-13.032-8.333-1.212-0.758-2.727-1.212-4.092-1.212-2.577 0-5.152 1.365-6.668 3.637l-41.065 66.221zM505.619 174.629l41.065 66.070c2.274 3.637 7.123 4.697 10.76 2.425 4.394-2.727 8.79-5.606 13.032-8.333 12.882-8.486 25.156-16.517 37.429-23.942 3.637-2.274 4.849-6.97 2.577-10.76l-40.461-66.525c-1.515-2.425-4.092-3.788-6.668-3.788-1.365 0-2.727 0.303-4.092 1.212-13.184 8.032-26.519 16.67-40.461 25.762-3.486 2.425-7.123 4.697-10.76 6.97-3.486 2.425-4.697 7.273-2.425 10.91zM596.996 734.707c-1.819 3.94-0.151 8.486 3.637 10.457 21.972 10.607 42.884 18.488 63.646 24.396 4.243 1.212 8.486-1.212 9.546-5.455l21.064-74.858c1.212-4.092-1.212-8.486-5.455-9.546-15.609-4.394-31.52-10.457-48.644-18.79-1.060-0.455-2.274-0.758-3.334-0.758-2.879 0-5.758 1.666-6.97 4.394l-33.49 70.162zM612.604 110.226l33.641 70.162c1.819 3.94 6.516 5.455 10.457 3.637 17.122-8.183 33.035-14.396 48.644-18.79 4.092-1.212 6.516-5.455 5.455-9.546l-21.064-74.858c-0.91-3.486-4.092-5.606-7.425-5.606-0.758 0-1.365 0.151-2.12 0.303-20.911 5.91-41.673 13.79-63.646 24.396-4.243 1.819-5.758 6.516-3.94 10.305zM210.882 713.643c1.971-0.455 3.788-1.666 4.849-3.486s1.365-3.94 0.91-5.91c0 0-1.819-8.486-1.819-19.7 0-2.12-0.758-4.092-2.274-5.455s-3.486-4.394-5.455-4.394l-47.885-1.515c9.85 15.759 20.76 30.914 32.732 45.157l18.942-4.697zM158.147 237.061c-0.455 1.971-0.151 4.092 1.060 5.91 16.215 25.912 40.005 44.552 70.919 55.462 4.092 1.365 8.486-0.758 10.001-4.697l25.912-73.344c1.365-4.092-0.758-8.486-4.697-10.001-10.457-3.637-17.881-9.244-22.731-16.821-1.060-1.819-2.879-3.031-4.849-3.486-0.606-0.151-1.212-0.151-1.819-0.151-1.515 0-2.879 0.455-4.092 1.212l-66.070 41.218c-1.971 1.060-3.181 2.727-3.637 4.697zM730.499 695.004l-3.94 77.738c-0.151 4.243 3.031 7.88 7.425 8.183 11.97 0.606 24.246 0.606 36.671-0.151 0.606 0 1.060-0.151 1.666-0.151 12.425-9.699 24.396-20.155 35.611-31.215l-11.215-58.493c-0.758-3.788-3.94-6.365-7.577-6.365-0.455 0-0.91 0-1.515 0.151-7.273 1.365-14.852 2.274-22.579 2.727-9.092 0.606-17.578 0.606-26.217 0.151-4.546-0.455-8.032 3.031-8.333 7.425zM825.362 680.154l18.336 28.943c8.94-11.365 17.428-23.335 25.156-35.611l-18.336-13.486c-1.365-1.365-3.334-2.274-5.455-2.274s-4.243 1.060-5.758 2.577c-3.031 3.031-7.123 6.365-11.669 9.092-3.486 2.425-4.546 7.273-2.274 10.76zM201.488 171.749l21.215-0.91c2.12 0 4.092-2.12 5.455-3.637 1.515-1.515 2.274-4.092 2.274-6.213 0-11.365 1.819-20.155 1.819-20.307s0-0.151 0-0.303c-10.76 10.001-21.064 20.457-30.761 31.368zM743.53 99.77l2.577 50.158c0.151 4.243 3.788 7.88 8.183 7.425 8.637-0.455 17.122-0.455 26.217 0.151 7.73 0.455 15.456 1.365 22.579 2.727 3.788 0.606 7.273-1.515 8.637-4.849-20.609-20.911-43.491-39.551-68.191-55.615z" />
<glyph unicode="&#xe61d;" glyph-name="MMA" d="M849.92 155.136c-13.312 0-26.624 2.048-39.936 6.144l-72.704 18.432-5.12 1.024-5.12 4.096c-6.144 4.096-11.264 6.144-14.336 9.216-19.456-46.080-67.584-78.848-128-80.896h-5.12l-5.12 2.048-87.040 16.384h-2.048l-2.048 1.024c-20.48 7.168-36.864 15.36-48.128 26.624l-8.192-24.576c-13.312-52.224 33.792-89.088 73.728-93.184l310.272-36.864c39.936-4.096 102.4 9.216 134.144 63.488l46.080 91.136c12.288 31.744-5.12 73.728-19.456 94.208-16.384-57.344-64.512-98.304-121.856-98.304zM944.128 798.208l-53.248 12.288c-34.816 5.12-67.584-21.504-88.064-53.248-13.312-12.288-26.624-20.48-39.936-15.36-16.384 7.168-25.6 13.312-35.84 26.624-8.192 47.104-52.224 97.28-81.92 103.424l-51.2 4.096c-34.816-1.024-89.088-48.128-104.448-101.376-11.264-9.216-19.456-15.36-26.624-16.384-11.264-1.024-21.504 5.12-31.744 11.264-29.696 31.744-47.104 45.056-86.016 40.96l-40.96-13.312c-33.792-11.264-41.984-41.984-67.584-97.28-12.288-24.576-22.528-49.152-36.864-55.296-7.168-2.048-29.696 4.096-39.936 6.144-24.576 16.384-61.44 14.336-88.064 6.144-26.624-9.216-53.248-86.016-53.248-151.552l1.024-224.256c9.216-55.296 13.312-81.92 61.44-96.256l47.104-12.288c13.312-4.096 29.696-5.12 41.984 0-12.288 18.432-15.36 40.96-14.336 68.608v0 0l22.528 211.968c0 0 2.048 34.816 19.456 33.792 12.288-1.024 12.288-27.648 8.192-59.392l-11.264-189.44c-1.024-45.056 14.336-63.488 56.32-74.752l93.184-16.384c29.696-1.024 56.32 13.312 67.584 40.96-12.288 22.528-12.288 47.104-13.312 67.584 0 5.12 0 8.192 0 13.312v4.096l39.936 291.84c2.048 7.168 5.12 16.384 15.36 16.384 12.288-1.024 14.336-11.264 13.312-25.6l-25.6-286.72c1.024-45.056-5.12-76.8 55.296-97.28l87.040-16.384c46.080 1.024 93.184 28.672 96.256 75.776v5.12c-15.36 38.912-11.264 83.968-5.12 121.856v2.048l32.768 168.96 29.696 109.568c0 0 6.144 18.432 20.48 18.432 13.312 0 14.336-11.264 13.312-21.504l-54.272-285.696c-7.168-55.296-13.312-106.496 29.696-130.048l73.728-19.456c55.296-18.432 101.376 20.48 113.664 75.776l75.776 392.192c8.192 57.344 0 109.568-65.536 130.048z" />
<glyph unicode="&#xe61e;" glyph-name="multi-entry" d="M1011.712 856.576c0 50.176-40.96 91.136-91.136 91.136h-817.152c-50.176 0-91.136-40.96-91.136-91.136v-818.176c0-50.176 40.96-91.136 91.136-91.136h818.176c50.176 0 91.136 40.96 91.136 91.136v818.176zM860.16 129.536h-151.552v274.432c0 13.312 4.096 25.6 4.096 41.984s6.144 62.464 9.216 122.88h-4.096l-125.952-439.296h-158.72l-126.976 439.296h-4.096c6.144-75.776-1.024-125.952-1.024-167.936v-271.36h-137.216v636.928h222.208l130.048-454.656h3.072l126.976 454.656h214.016v-636.928z" />
<glyph unicode="&#xe61f;" glyph-name="NBA" d="M512 911.872c-256 0-463.872-207.872-463.872-463.872s207.872-463.872 463.872-463.872 463.872 207.872 463.872 463.872c0 256-207.872 463.872-463.872 463.872zM358.4 57.856c-36.864 54.272-66.56 115.712-86.016 178.176-2.048 5.12-4.096 17.408-6.144 17.408 0 0-1.024 0-1.024 0h-1.024c-5.12 0-11.264-2.048-16.384-3.072-43.008-6.144-61.44-37.888-68.608-56.32-15.36 19.456-27.648 38.912-38.912 59.392 15.36 19.456 33.792 34.816 55.296 45.056 17.408 8.192 35.84 13.312 55.296 14.336-4.096 22.528-8.192 46.080-10.24 69.632-34.816 5.12-64.512 11.264-90.112 18.432-22.528 6.144-41.984 14.336-57.344 22.528-1.024 8.192-1.024 16.384-1.024 24.576 0 18.432 1.024 35.84 3.072 53.248 6.144-8.192 24.576-23.552 72.704-37.888 19.456-6.144 43.008-11.264 68.608-15.36 0 3.072 0 5.12 0 8.192 0 30.72 3.072 62.464 7.168 93.184-59.392 16.384-90.112 59.392-104.448 93.184 13.312 25.6 28.672 49.152 47.104 71.68v-1.024c0-3.072 6.144-77.824 69.632-99.328 19.456 79.872 52.224 155.648 97.28 224.256 31.744 13.312 65.536 22.528 100.352 26.624-63.488-73.728-109.568-162.816-133.12-256 60.416 5.12 111.616 38.912 172.032 75.776 13.312 8.192 27.648 17.408 40.96 25.6 24.576 15.36 52.224 27.648 79.872 36.864 33.792 11.264 67.584 22.528 101.376 24.576 8.192 1.024 15.36 5.12 23.552 5.12h2.048c15.36 0 30.72-5.12 45.056-7.168 32.768-28.672 61.44-63.488 83.968-100.352l-6.144 2.048c-21.504 14.336-46.080 23.552-73.728 28.672-16.384 3.072-33.792 4.096-51.2 4.096-21.504 0-44.032-3.072-66.56-7.168-36.864-8.192-72.704-22.528-104.448-41.984-13.312-8.192-26.624-16.384-39.936-24.576-69.632-44.032-135.168-84.992-219.136-87.040-4.096-28.672-6.144-57.344-6.144-87.040 0-5.12 0-10.24 0-15.36 45.056-4.096 94.208-6.144 147.456-6.144 201.728 0 406.528 30.72 476.16 70.656l2.048 1.024c2.048-18.432 4.096-37.888 4.096-57.344 0-4.096 0-8.192 0-12.288-103.424-43.008-288.768-58.368-344.064-61.44-47.104-3.072-93.184-4.096-138.24-4.096-5.12 0-11.264 0-16.384 0-44.032 0-87.040 2.048-125.952 6.144 3.072-22.528 6.144-44.032 11.264-66.56 94.208-15.36 172.032-65.536 215.040-93.184l8.192-5.12c19.456-12.288 41.984-26.624 65.536-38.912 40.96-20.48 78.848-30.72 116.736-30.72 25.6 0 52.224 5.12 77.824 14.336l20.48 8.192c-31.744-34.816-68.608-63.488-110.592-86.016-88.064 4.096-158.72 49.152-205.824 79.872l-2.048 1.024-5.12 3.072c-32.768 20.48-92.16 58.368-160.768 76.8 4.096-10.24 8.192-21.504 12.288-31.744 25.6-60.416 59.392-117.76 102.4-167.936l6.144-8.192c-34.816 4.096-68.608 13.312-100.352 25.6z" />
<glyph unicode="&#xe620;" glyph-name="NFL" d="M800.768 721.408c-244.736 246.784-666.624 231.424-738.304 161.792-9.216-9.216-35.84-68.608-39.936-92.16-28.672-135.168-9.216-374.784 122.88-561.152 0-1.024 37.888-57.344 96.256-107.52v0c154.624-134.144 350.208-172.032 495.616-172.032 86.016-1.024 182.272 28.672 209.92 49.152 89.088 74.752 100.352 475.136-146.432 721.92zM450.56 845.312l3.072-1.024c16.384-6.144 33.792-15.36 50.176-24.576 13.312 5.12 29.696 13.312 44.032 14.336h3.072l48.128-35.84-15.36-4.096c-6.144-1.024-14.336-4.096-23.552-6.144 14.336-9.216 27.648-18.432 39.936-28.672 11.264 4.096 23.552 6.144 33.792 9.216h3.072l47.104-40.96-13.312-4.096c-5.12-1.024-13.312-4.096-19.456-6.144 10.24-10.24 20.48-19.456 32.768-29.696 14.336 5.12 27.648 9.216 38.912 9.216h4.096l35.84-47.104-9.216-1.024c-6.144-1.024-14.336-5.12-23.552-9.216 11.264-13.312 23.552-27.648 33.792-43.008 11.264 4.096 20.48 6.144 32.768 6.144h3.072l45.056-40.96-13.312-4.096c-9.216-3.072-19.456-5.12-32.768-11.264 10.24-14.336 19.456-25.6 28.672-39.936 11.264 3.072 20.48 5.12 29.696 5.12h4.096l30.72-47.104-6.144-3.072c-6.144-1.024-15.36-4.096-24.576-9.216 9.216-14.336 14.336-28.672 19.456-39.936l3.072-5.12-68.608-44.032-3.072 8.192c-6.144 13.312-15.36 28.672-24.576 44.032-10.24-6.144-18.432-14.336-27.648-20.48l-6.144-5.12-29.696 48.128 4.096 4.096c9.216 9.216 18.432 16.384 29.696 25.6-9.216 14.336-16.384 27.648-25.6 39.936-6.144-5.12-14.336-13.312-20.48-18.432-3.072-3.072-5.12-5.12-9.216-6.144l-5.12-8.192-34.816 47.104 4.096 4.096c10.24 10.24 20.48 19.456 33.792 28.672-11.264 14.336-23.552 28.672-33.792 40.96-14.336-11.264-28.672-23.552-39.936-34.816l-5.12-5.12-39.936 50.176 4.096 4.096c10.24 11.264 20.48 23.552 32.768 32.768-14.336 13.312-25.6 24.576-35.84 34.816-11.264-9.216-23.552-19.456-33.792-29.696-3.072-3.072-5.12-5.12-9.216-9.216l-7.168-5.12-35.84 48.128 4.096 4.096c10.24 10.24 23.552 20.48 34.816 29.696-13.312 10.24-27.648 19.456-39.936 28.672-10.24-6.144-20.48-16.384-29.696-27.648l-6.144-4.096-44.032 43.008 4.096 5.12c5.12 5.12 11.264 11.264 16.384 16.384-15.36 9.216-32.768 15.36-54.272 25.6l-13.312 8.192 81.92 34.816z" />
<glyph unicode="&#xe621;" glyph-name="NHL" d="M460.8 393.728c-87.040 88.064-153.6 186.368-188.416 277.504-18.432 48.128-26.624 92.16-25.6 131.072-70.656-70.656-166.912-164.864-168.96-166.912-75.776-74.752 0-276.48 171.008-450.56 171.008-173.056 375.808-258.048 447.488-178.176 4.096 5.12 99.328 98.304 168.96 166.912-37.888-1.024-81.92 8.192-130.048 27.648-90.112 35.84-187.392 103.424-274.432 192.512zM781.312 709.12c-169.984 173.056-370.688 252.928-446.464 178.176s0-276.48 171.008-450.56c171.008-174.080 370.688-253.952 447.488-179.2 75.776 75.776-1.024 277.504-172.032 451.584zM913.408 316.928c-60.416-59.392-222.208 14.336-357.376 153.6 0 0 216.064-146.432 321.536-108.544 41.984 15.36 38.912 57.344 44.032 79.872 15.36-54.272 18.432-99.328-8.192-124.928z" />
<glyph unicode="&#xe622;" glyph-name="notification-bell" d="M907.662 231.084c0.931 5.586 1.862 11.172 1.862 17.688v4.655c0 32.584-22.343 59.582-52.134 67.030h0.931c0 0-52.134 27.929-76.339 78.201-26.998 53.996-6.517 128.474-32.584 208.537-29.791 94.959-94.959 173.16-183.401 195.503v54.927c0 23.274-18.619 41.894-41.894 41.894h-25.136c-23.274 0-41.894-18.619-41.894-41.894v-55.858c-88.442-22.343-154.541-100.545-184.332-195.503-25.136-80.994-5.586-154.541-32.584-208.537-25.136-51.203-76.339-78.201-76.339-78.201h0.931c-20.481-5.586-38.17-19.55-46.548-39.101v0 0.931c0 0-0.931-1.862-1.862-6.517-1.862-6.517-3.724-14.895-3.724-23.274v-4.655c0-38.17 30.722-68.892 68.892-68.892h655.402c35.377 0 63.306 23.274 70.754 53.065zM727.054 231.084v0 0zM384.457 231.084v0 0zM407.731 109.127c0-1.862 0-3.724 0-5.586 0-58.651 48.41-107.061 107.061-107.061s107.061 48.41 107.061 107.061c0 1.862 0 3.724 0 5.586h-214.123z" />
<glyph unicode="&#xe623;" glyph-name="out" d="M794.726 372.326c-29.491 16.998-39.629 54.784-22.63 84.275s54.784 39.526 84.275 22.528c29.491-16.998 39.629-54.682 22.528-84.173-16.998-29.594-54.682-39.731-84.173-22.63zM312.218 650.854c-29.491 16.998-39.629 54.784-22.63 84.275s54.784 39.526 84.275 22.528c29.491-16.998 39.629-54.682 22.528-84.173-16.998-29.594-54.682-39.629-84.173-22.63zM643.482 345.702c0 0-125.645-7.68-202.445 23.45-119.091 48.333-171.93 130.15-186.88 160.461 0 0 24.371 7.885 191.078-76.902 13.824-6.963 198.246-107.008 198.246-107.008zM762.061 496.128l-325.222 187.802c-2.048-9.523-5.53-18.842-10.65-27.75-26.112-45.261-83.866-60.723-129.126-34.611s-60.826 83.968-34.714 129.126c3.686 6.349 7.987 12.083 12.698 17.203-44.339 22.835-109.773 19.661-109.773 19.661l-37.478-64.922c0 0 1.229-19.251-5.734-31.334l-32.666-62.464 6.554-4.608-6.963-4.403-8.397 4.813-29.491-16.589 51.302-29.594 41.984 11.264 9.728-6.861c4.506-6.554 9.318-14.234 14.746-22.528 31.846-49.152 63.386-114.381 169.37-177.050 40.858-24.166 108.237-53.555 108.237-53.555 106.189-42.598 213.299-25.088 213.299-25.088l54.272-22.118c0 0 6.758-10.24 12.902-13.824 24.064-13.926 70.144-39.322 70.144-39.322l12.083 20.89c75.059-20.89 112.435-7.27 121.754 2.867l60.211 91.034c0 0-19.046 31.744-75.366 54.579-2.048-6.861-4.915-13.619-8.704-20.173-26.112-45.261-83.866-60.723-129.126-34.611s-60.826 83.968-34.714 129.126c5.222 8.909 11.571 16.589 18.842 23.040zM524.288 206.336c0 0.717-0.102 1.229-0.205 1.741-0.307 1.741-0.819 3.482-1.741 5.018-3.891 7.27-12.902 10.445-20.582 7.168-1.638-0.717-3.174-1.638-4.403-2.867-1.946-1.843-3.482-4.096-4.301-6.554-0.205-0.512-0.307-1.024-0.512-1.638l-0.205-0.717-0.205-2.355-0.307-70.554-116.634 100.659c-0.922 0.614-1.843 1.331-3.482 2.048-4.813 1.946-10.24 1.536-14.643-1.126-1.536-0.922-2.355-1.741-3.072-2.458l-0.614-0.614-1.126-1.638-35.021-57.958-38.195 75.162-0.512 0.922c-0.614 0.922-1.229 1.946-2.56 3.277-3.891 3.789-9.318 5.325-14.643 4.198-1.843-0.41-2.867-0.922-3.891-1.434l-0.819-0.41-1.946-1.331-116.122-98.816 54.784 136.294 0.307 1.024c0.307 1.024 0.614 2.15 0.717 3.994 0.307 4.301-1.229 8.602-4.198 11.776-1.229 1.331-2.15 2.048-3.072 2.56l-0.819 0.512-2.048 1.024-78.848 28.365 85.606 28.877c0.614 0.307 1.126 0.512 1.638 0.717 1.536 0.819 2.97 1.946 4.198 3.174 1.229 1.331 2.15 2.765 2.97 4.403 3.379 7.578 0.307 16.589-6.963 20.582-3.072 1.741-6.758 2.355-10.24 1.741-0.717-0.102-1.331-0.307-1.741-0.41l-0.41-0.102-129.741-43.622c-0.614-0.307-1.126-0.512-1.638-0.717-1.536-0.819-2.97-1.946-4.198-3.174-5.018-5.325-5.734-13.414-1.843-19.558 0.922-1.536 2.15-2.867 3.482-3.891 0.41-0.307 0.819-0.614 1.331-0.922l0.614-0.41 2.15-1.024 106.598-38.4-72.499-181.453-0.205-0.717c-0.205-0.614-0.41-1.229-0.512-1.741-0.41-1.741-0.512-3.482-0.307-5.325 1.024-8.294 8.294-14.541 16.589-14.131 1.741 0.102 3.482 0.41 5.12 1.126 0.717 0.307 1.331 0.614 1.638 0.717l0.614 0.307 2.048 1.434 149.914 127.59 42.086-82.944 0.41-0.717c0.205-0.41 0.512-0.922 0.922-1.434 1.024-1.434 2.253-2.662 3.789-3.686 5.12-3.584 11.981-3.891 17.408-0.614 1.638 0.922 2.458 1.741 3.174 2.56l0.717 0.717 1.434 1.843 39.936 66.253 128.614-111.002c0.512-0.41 1.024-0.717 1.434-1.024 1.536-0.922 3.072-1.536 4.813-1.946 0.512-0.102 1.126-0.205 1.741-0.307l0.922-0.102h2.458l1.331 0.205c1.126 0.205 2.253 0.41 3.891 1.229 3.994 1.843 7.168 5.222 8.499 9.421 0.614 1.741 0.717 2.867 0.819 3.994v0.614l0.41 105.574-0.102 1.024z" />
<glyph unicode="&#xe624;" glyph-name="PGA" d="M615.319 152.785c0 3.668-3 10.668-3 10.668-32.668-13.667-61.173-21.335-98.674-21.335-35.336 0-61.838 6.834-92.84 19.001 0 0-1.832-5.501-1.832-8.333 0-14.501 15.834-27.501 40.503-35.837 16-17.502 35.502-116.676 50.671-160.677 3-8.502 11.334-8.834 14.334 0.166 14.501 44.335 33.834 142.177 50.671 160.511 24.168 8.333 40.17 21.169 40.17 35.837zM651.488 443.14c0-30.839-25-55.837-55.837-55.837s-55.837 25-55.837 55.837c0 30.839 25 55.837 55.837 55.837s55.837-25 55.837-55.837zM444.307 667.49c0-30.839-25-55.837-55.837-55.837s-55.837 25-55.837 55.837c0 30.839 25 55.837 55.837 55.837s55.837-25 55.837-55.837zM592.15 644.322c20.502 20.502 20.502 54.004 0 74.506s-54.004 20.502-74.506 0c0 0 33.502-0.833 54.17-21.502 20.502-20.502 20.335-53.003 20.335-53.003zM490.477 764.663c20.502 20.502 21.502 59.506 0 74.506-17.667 12.335-45.003 12-60.504 0.501 0 0 30.336-2.667 43.335-16 24.502-25.002 17.17-59.003 17.17-59.003zM542.647 552.981c0-30.839-25-55.837-55.837-55.837s-55.837 25-55.837 55.837c0 30.839 25 55.837 55.837 55.837s55.837-25 55.837-55.837zM790.666 467.308c13.503-14.002 10.5-40.17 10.5-40.17 20.502 20.502 15.5 44.67 6.668 55.671-18.168 22.668-54.004 20.502-74.506 0 0 0 39.337 3.167 57.339-15.5zM699.992 520.146c20.502 20.502 20.502 54.004 0 74.506s-54.004 20.502-74.506 0c0 0 33.002-3.499 53.67-24.003 20.335-20.668 20.835-50.505 20.835-50.505zM511.311 931.012c-206.015 0-373.694-167.512-373.694-373.694s167.68-373.694 373.694-373.694 373.694 167.68 373.694 373.694-167.68 373.694-373.694 373.694zM384.801 498.811c-19.835-1.333-36.503-12.669-45.338-28.837-7.5 11.334-14.17 23.168-20.335 35.169 17.17 10.5 28.169 29.836 26.668 51.338-2.002 30.835-28.667 54.17-59.337 52.17-1.501-0.166-3-0.333-4.333-0.501-11.166 46.669-15.834 91.34-17.502 127.009 7.667-4 16.337-6.167 25.503-6.167 30.835 0 55.837 25.002 55.837 55.837 0 24.835-16.167 45.837-38.504 53.003 57.339 41.669 127.675 66.34 203.848 66.34 190.848 0 346.025-154.846 347.026-345.358-1.501-93.674-40.003-178.346-101.674-239.85 0 0-4.501-0.667-12.835-1.333 0.501 2.835 0.667 5.667 0.667 8.502 0 30.835-25.002 55.837-55.837 55.837s-55.837-25.002-55.837-55.837c0-2.835 0.166-5.501 0.667-8.167-26.502 2.332-55.671 6.501-85.173 13.834 0.667 4.166 1 8.502 0.667 13.001-2.002 30.835-28.667 54.17-59.337 52.17-18.502-1.165-34.169-11.166-43.503-25.667-11.501 6.334-22.668 13.503-33.337 21.335 20 9.501 33.337 30.503 31.67 54.004-2.169 30.835-28.837 54.17-59.67 52.17zM164.619 542.314c0.833 5.835 1.333 11.334 1.333 15.669 0 7.334 6.001 13.335 13.335 13.335s13.335-6.001 13.335-13.335c0-22.003 2.169-43.335 6.501-64.172 21.169-6.834 37.002-26.004 38.67-49.505 0.833-12.501-2.667-24.168-9-34.003 5.166-10.001 11.001-19.835 17.17-29.169 7.667 4.833 16.337 8 25.834 8.667 30.835 2.002 57.339-21.335 59.337-52.17 0.833-13.503-3.334-25.834-10.5-36.003 11.667-8.834 24.168-17.001 37.002-24.168 6.334 3.167 13.335 5.166 20.835 5.667 25.169 1.666 47.336-13.834 55.837-36.337 25.503-6.501 52.337-10.001 79.838-10.001 7.334 0 13.335-6.001 13.335-13.335 0-6.501-4.667-11.667-10.835-12.835-1.832 0-3.499-0.166-5.333-0.166-186.346 0-338.858 147.511-346.693 331.858z" />
<glyph unicode="&#xe625;" glyph-name="play-circle" d="M409.6 673.28l345.088-199.68c22.528-13.312 22.528-46.080 0-59.392l-345.088-199.68c-22.528-13.312-52.224 3.072-52.224 29.696v398.336c1.024 27.648 29.696 44.032 52.224 30.72zM512 856.576c225.28 0 408.576-183.296 408.576-408.576s-183.296-408.576-408.576-408.576-408.576 183.296-408.576 408.576 183.296 408.576 408.576 408.576zM512 928.256c-265.216 0-480.256-215.040-480.256-480.256s215.040-480.256 480.256-480.256 480.256 215.040 480.256 480.256-215.040 480.256-480.256 480.256v0z" />
<glyph unicode="&#xe626;" glyph-name="plus" d="M576.512 506.368v397.312c0 15.36-13.312 28.672-28.672 28.672h-62.464c-15.36 0-28.672-13.312-28.672-28.672v-397.312c0 0 0-1.024-1.024-1.024h-397.312c-15.36 0-28.672-13.312-28.672-28.672v-62.464c1.024-15.36 13.312-27.648 28.672-27.648h397.312c0 0 1.024 0 1.024-1.024v-388.096c0-15.36 13.312-28.672 28.672-28.672h62.464c15.36 0 28.672 13.312 28.672 28.672v388.096c0 0 0 1.024 1.024 1.024h388.096c15.36 0 28.672 13.312 28.672 28.672v62.464c0 15.36-13.312 28.672-28.672 28.672h-389.12c1.024-1.024 0 0 0 0z" />
<glyph unicode="&#xe627;" glyph-name="prize-ribbon" d="M510.976 781.824c-117.76 0-212.992-95.232-212.992-211.968 0-117.76 95.232-212.992 212.992-212.992s212.992 96.256 212.992 214.016c0 115.712-95.232 210.944-212.992 210.944zM897.024 525.824l-76.8 73.728 60.416 87.040-99.328 34.816 19.456 104.448-105.472-9.216-25.6 104.448-93.184-51.2-65.536 83.968-64.512-82.944-93.184 51.2-24.576-103.424-105.472 8.192 19.456-104.448-99.328-34.816 60.416-87.040-76.8-73.728 91.136-56.32-40.96-97.28 105.472-14.336 2.048-105.472 102.4 30.72 45.056-95.232 79.872 67.584 79.872-67.584 45.056 95.232 102.4-30.72 2.048 105.472 105.472 14.336-40.96 97.28 91.136 55.296zM510.976 304.64c-146.432 0-266.24 119.808-266.24 266.24s119.808 266.24 266.24 266.24 266.24-119.808 266.24-266.24-117.76-266.24-266.24-266.24zM451.584 165.376l-29.696-25.6-17.408 35.84-33.792 71.68-72.704-21.504-60.416-207.872 210.944-61.44 40.96 142.336-22.528 78.848zM652.288 247.296l-33.792-71.68-17.408-35.84-29.696 25.6-60.416 51.2-10.24-9.216 72.704-250.88 210.944 61.44-60.416 207.872z" />
<glyph unicode="&#xe628;" glyph-name="RAF" horiz-adv-x="1324" d="M981.498 296.188c-22.632 10.662-42.46 21.136-91.559 62.381-41.152 34.511-69.021 69.021-91.559 96.891-11.971 18.611-26.467 31.798-35.82 41.152-13.281 11.971-35.82 13.282-49.1 13.282-11.971 0-15.992-1.309-19.92-2.619-1.309 0-4.021-1.31-5.331-1.31-7.95-6.641-19.92-25.157-26.467-38.438-13.281-25.157-27.776-45.080-42.46-58.359-23.943-19.92-54.431-45.079-104.839-46.388h-18.611c-27.776 0-55.74 11.971-71.732 30.489-10.662 11.971-14.589 26.467-13.281 39.747 1.309 15.992 11.971 35.82 35.82 73.042 1.309 1.309 2.619 4.021 4.021 5.331 2.619 4.021 5.331 9.259 7.95 13.281 4.021 6.641 7.95 17.302 11.971 29.18 2.619 7.95 6.641 17.302 9.259 25.157l1.309 6.641c7.95 25.157 14.589 42.46 23.943 54.431 9.259 13.282 50.408 51.719 90.157 83.516-4.021 0-9.259 0-13.281 0-18.611 0-37.129-2.619-55.74-5.331-19.92-2.619-45.079-13.281-69.021-22.632-29.18-11.971-59.762-23.942-82.207-23.942-35.82 0-75.568 18.611-86.229 23.942l-139.164-287.959c5.331-6.641 25.157-33.107 67.712-74.352v2.619c14.589 29.18 38.438 45.080 67.711 45.080 5.331 0 11.971 0 18.611-1.309 29.18-5.331 51.719-26.467 59.762-55.74 6.641 2.619 14.589 4.021 22.632 4.021 5.331 0 11.971 0 18.611-1.309 42.46-9.259 65-43.77 66.403-99.509h4.021c5.331 0 11.971 0 18.611-1.309 50.408-11.971 62.381-58.359 63.689-83.516 9.259 4.021 18.611 6.641 27.776 6.641 7.95 0 15.992-1.309 25.157-4.021 45.079-18.611 45.079-62.381 45.079-80.897 0-11.971-1.309-22.632-4.021-31.798 9.259-2.619 25.157-6.641 34.511-5.331 14.589 2.619 29.18 5.331 39.747 21.136 10.662 13.281 6.641 29.18 6.641 29.18l-1.309 6.641 6.641-2.619c0 0 38.438-13.282 59.762-11.971 19.92 1.309 30.488 17.302 35.82 30.488 2.619 7.95 1.309 35.82 0 45.079l-1.309 6.641 5.331-2.619c13.281-6.641 45.080-18.611 61.070-22.632 15.992-2.619 50.408 19.92 50.408 37.129 0 14.589-11.971 46.388-11.971 46.388l-1.31 6.641 74.352-15.992c13.281-2.619 29.18 7.95 38.438 25.157 6.641 9.259 9.259 31.798 9.259 51.719-11.971 0-41.152 2.619-71.732 18.611l-4.209 0.28zM230.502 752.584l-55.74 26.467c-4.021 2.619-7.95 2.619-11.971 2.619-9.259 0-18.611-5.331-22.632-14.589l-131.308-271.968c-4.021-5.331-4.021-11.971-2.619-18.611 2.619-6.641 6.641-13.282 13.282-15.992l55.74-26.467c11.971-7.95 27.776-1.31 34.511 10.662l131.308 273.37c6.734 14.589 0.094 29.273-10.568 34.511zM1314.442 475.287l-131.308 273.37c-4.021 7.95-13.281 14.589-22.632 14.589-4.021 0-7.95-1.31-11.971-2.619l-55.647-27.869c-5.331-2.619-10.662-7.95-13.281-14.589-1.309-6.641-1.309-11.971 1.309-17.302l131.308-273.37c4.021-7.95 13.281-14.589 22.632-14.589 4.021 0 7.95 1.309 11.971 2.619l55.74 26.467c6.641 2.619 10.662 9.259 13.281 15.992 2.619 5.425 2.619 11.971-1.403 17.302zM958.959 682.254c-11.971 0-22.632 0-31.798 1.309-45.079 4.021-79.589 10.662-122.142 26.467-29.18 9.259-71.732 19.92-96.891 19.92-6.641 0-10.662 0-14.589-1.309-37.129-11.971-132.618-94.178-143.278-111.48-5.331-7.95-11.971-26.467-18.611-47.79-7.95-25.157-17.302-51.719-25.157-63.69-5.331-9.259-11.971-18.611-18.611-27.776-10.662-15.992-22.632-31.798-23.942-39.747 0-5.331 1.309-11.971 6.641-17.302 5.331-6.641 14.589-9.259 26.467-9.259 35.82 1.31 55.74 9.259 79.589 30.488 10.662 9.259 21.136 26.467 31.798 45.079 14.589 23.943 27.776 49.1 46.388 58.359h1.309c1.309 0 31.798 7.95 66.403 7.95 35.82 0 62.381-7.95 79.589-22.632 13.281-11.971 25.157-27.776 39.747-46.388 22.632-27.776 47.79-59.762 87.538-92.87 43.77-37.129 62.381-45.079 84.919-57.050 23.942-10.662 45.079-13.281 55.74-13.281 2.619 0 4.021 0 5.331 0l102.128 61.070-151.041 303.951c-9.259-1.309-38.344-4.021-67.525-4.021zM314.018 317.325c-5.331 9.259-14.589 15.992-25.157 18.611-1.31 0-2.619 0-5.331 0-14.589 0-29.18-9.259-35.82-25.157-2.619-5.331-5.331-10.662-7.95-15.992-6.641-14.589-15.992-30.489-15.992-38.438 0-11.971 10.662-31.798 25.157-38.438 6.641-4.021 14.589-6.641 23.942-6.641 11.971 0 22.632 5.331 27.776 11.971 1.31 5.331 4.021 11.971 6.641 18.611 4.021 10.662 7.95 21.136 11.971 34.511 4.115 14.496 1.403 29.18-5.237 40.964zM391.083 274.96c-2.619 0-5.331 1.309-7.95 1.309-14.589 0-25.157-7.95-33.107-23.943-2.619-5.331-5.331-11.971-10.662-19.92-10.662-22.632-26.467-55.74-27.776-65-1.309-11.971 0-31.798 22.632-42.46 10.662-5.331 21.136-7.95 30.488-7.95v0c9.259 0 18.611 2.619 27.776 7.95 13.281 9.259 31.798 65 33.107 91.559-1.403 30.583-8.044 53.121-34.511 58.452zM483.952 168.902c-2.619 0-5.331 1.309-7.95 1.309-18.611 0-26.467-14.589-30.488-22.632-4.021-6.641-7.95-14.589-11.971-23.943-4.021-10.662-11.971-30.489-11.971-31.798 0-10.662-1.309-27.776 18.611-43.77 9.259-7.95 19.92-11.971 29.18-11.971 10.662 0 21.136 4.021 26.467 10.662 6.641 7.95 19.92 30.489 21.136 59.762 2.712 33.107-6.453 57.049-33.015 62.381zM588.791 95.86c-4.021 1.309-7.95 2.619-11.971 2.619-13.281 0-23.943-10.662-29.18-18.611-11.971-19.92-22.632-38.438-14.589-62.381 4.021-11.971 25.157-21.136 41.152-21.136 6.641 0 11.971 1.309 14.589 2.619 13.281 9.259 21.136 29.18 21.136 54.431-1.216 25.157-2.712 35.82-21.136 42.46z" />
<glyph unicode="&#xe629;" glyph-name="recent" d="M538.368 392.32v0l169.984 154.624c8.192 7.168 9.216 21.504 1.024 31.744-9.216 10.24-22.528 13.312-31.744 7.168l-138.24-81.92-21.504 233.472c-1.024 13.312-13.312 24.576-26.624 23.552s-25.6-11.264-26.624-24.576c0 0-10.24-300.032-10.24-301.056v0c0-43.008 49.152-68.608 83.968-43.008zM516.864 926.848c-253.952 0-458.752-205.824-458.752-458.752 0-3.072 0-5.12 0-8.192h-79.872l118.784-165.888 118.784 165.888h-86.016c0 3.072 0 5.12 0 8.192 0 212.992 174.080 387.072 387.072 387.072s387.072-173.056 387.072-387.072-174.080-387.072-387.072-387.072c-134.144 0-252.928 68.608-322.56 173.056l-44.032-61.44c83.968-111.616 217.088-183.296 366.592-183.296 253.952 0 458.752 205.824 458.752 458.752s-205.824 458.752-458.752 458.752z" />
<glyph unicode="&#xe62a;" glyph-name="refresh" d="M906.24 364.032l-282.624-56.32c-7.168-2.048-12.288-9.216-12.288-18.432l11.264-61.44c2.048-7.168 10.24-14.336 18.432-12.288l96.256 20.48c-58.368-67.584-142.336-105.472-232.448-105.472-150.528 0-280.576 107.52-307.2 254.976l-141.312-39.936c46.080-208.896 234.496-360.448 448.512-360.448 135.168 0 260.096 58.368 347.136 159.744l15.36-65.536c2.048-7.168 9.216-12.288 18.432-12.288l61.44 11.264c7.168 2.048 12.288 9.216 12.288 18.432l-53.248 267.264zM113.664 522.752l282.624 56.32c7.168 2.048 12.288 9.216 12.288 18.432l-11.264 61.44c-2.048 7.168-10.24 14.336-18.432 12.288l-96.256-20.48c59.392 68.608 143.36 107.52 232.448 107.52 150.528 0 280.576-107.52 307.2-254.976l141.312 39.936c-46.080 206.848-234.496 358.4-448.512 358.4-135.168 0-260.096-58.368-347.136-159.744l-15.36 75.776c-2.048 7.168-9.216 12.288-18.432 12.288l-61.44-11.264c-7.168-2.048-12.288-9.216-12.288-18.432l53.248-277.504z" />
<glyph unicode="&#xe62b;" glyph-name="running" d="M833.991 409.884c-27.42 0-49.721-22.187-49.721-49.607s22.3-49.607 49.721-49.607 49.607 22.187 49.607 49.607c0 27.42-22.187 49.607-49.607 49.607zM385.593 409.884c-27.42 0-49.721-22.187-49.721-49.607s22.3-49.607 49.721-49.607c27.42 0 49.607 22.187 49.607 49.607s-22.187 49.607-49.607 49.607zM739.442 489.415c0 0-84.537 55.979-150.756 65.195-102.514 14.222-172.373-21.618-195.015-36.75 0 0 13.881-15.36 164.295-23.324 12.516-0.683 181.476-5.12 181.476-5.12zM761.515 336.612h-302.421c2.389 7.396 3.755 15.36 3.755 23.666 0 42.098-34.133 76.117-76.117 76.117-42.098 0-76.231-34.133-76.231-76.117 0-5.916 0.683-11.605 1.934-17.18-40.164 1.934-84.537 30.492-84.537 30.492v60.416c0 0 8.533 12.971 8.533 24.121l2.276 56.775 6.372 0.569-3.072 5.803h-7.851l-13.881 23.438h47.673l24.804-24.804 9.557 0.91c5.803 2.731 12.288 6.144 19.342 9.785 41.984 21.504 90.34 54.272 189.554 55.296 38.229 0.455 97.052-6.258 97.052-6.258 91.364-13.084 158.948-68.494 158.948-68.494l46.763-6.485c0 0 8.875 4.437 14.564 4.437 22.414 0 64.853-0.796 64.853-0.796v-19.456c60.757-15.701 81.351-40.277 83.854-51.086l5.348-87.723c0 0-26.169-14.45-74.524-7.737 1.365 5.689 2.048 11.492 2.048 17.636 0 42.098-34.133 76.117-76.117 76.117-42.098 0-76.231-34.133-76.231-76.117 0-7.851 1.365-15.815 3.755-23.324zM196.267 420.466c-0.569 0.455-1.252 0.91-2.048 1.365-1.365 0.683-2.844 1.024-4.324 1.024-9.557 0-17.067 0.114-24.348 0.228-12.971 0.228-24.121 0.455-41.529-0.228h-0.228c-2.503-0.228-4.892-1.365-6.485-3.186-3.641-3.868-3.413-10.012 0.455-13.653l0.455-0.341c0.569-0.455 1.252-0.91 2.048-1.365 1.365-0.683 2.844-1.024 4.324-1.024 9.557 0 17.067-0.114 24.348-0.228 6.258-0.114 12.060-0.228 18.318-0.228 6.827 0 14.108 0.114 23.097 0.455h0.228c2.503 0.228 4.892 1.365 6.485 3.186 1.707 1.82 2.617 4.324 2.617 6.94-0.114 2.617-1.138 5.006-3.072 6.713l-0.341 0.341zM189.326 451.868l0.341 0.114c1.365 0.341 2.731 1.138 3.982 2.162l0.341 0.228c0.91 0.91 1.707 1.934 2.048 3.072 2.048 4.665 0.228 10.012-4.21 12.516-1.479 0.91-3.072 1.252-4.779 1.252h-160.199c-1.024-0.114-2.617-0.341-4.324-1.252-1.024-0.683-1.82-1.365-2.389-1.934l-0.228-0.341c-3.3-3.982-2.958-10.012 0.91-13.54l0.114-0.114c0.91-0.796 2.162-1.707 4.096-2.162h0.228c0.91-0.228 1.365-0.228 2.162-0.228h159.744c0.796 0 1.252 0.114 2.162 0.228zM89.316 500.338c0.91-0.228 1.365-0.228 2.048-0.228 14.677 0 13.881-0.228 26.396-0.455 11.378-0.228 22.414-0.455 33.906-0.455 12.060 0 24.69 0.228 39.026 0.91h0.455l0.455 0.114c1.138 0.228 2.389 0.683 3.641 1.365 1.138 0.683 1.934 1.479 2.389 2.162 3.186 3.868 2.844 9.557-0.683 13.084-1.365 1.365-2.958 2.276-4.892 2.731-0.91 0.228-1.365 0.228-2.048 0.228-14.791 0-27.648 0.228-40.164 0.455-23.097 0.455-31.289 0.91-59.164-0.455h-0.455l-0.455-0.114c-1.138-0.228-2.389-0.683-3.527-1.365s-1.934-1.479-2.389-2.162c-3.186-3.868-2.844-9.557 0.683-13.084 1.252-1.365 2.844-2.276 4.779-2.731z" />
<glyph unicode="&#xe62c;" glyph-name="search" d="M752.64 849.408c-146.432 93.184-340.992 50.176-434.176-96.256-83.968-132.096-57.344-302.080 55.296-403.456l-202.752-280.576c-12.288-17.408-7.168-41.984 10.24-53.248l61.44-39.936c18.432-11.264 41.984-5.12 52.224 13.312l171.008 302.080c137.216-54.272 299.008-6.144 380.928 122.88 95.232 147.456 52.224 342.016-94.208 435.2zM758.784 472.576c-61.44-97.28-190.464-124.928-287.744-63.488s-124.928 190.464-63.488 287.744c61.44 97.28 190.464 124.928 287.744 63.488s124.928-191.488 63.488-287.744z" />
<glyph unicode="&#xe62d;" glyph-name="share" d="M795.648 287.232c-41.984 0-79.872-15.36-110.592-39.936l-290.816 168.96c1.024 9.216 2.048 18.432 2.048 27.648s-1.024 19.456-2.048 28.672l292.864 168.96c29.696-25.6 67.584-39.936 108.544-39.936 95.232 0 172.032 76.8 172.032 172.032 0 94.208-76.8 171.008-172.032 171.008-94.208 0-171.008-76.8-171.008-171.008 0-10.24 1.024-20.48 3.072-29.696l-292.864-168.96c-29.696 24.576-68.608 39.936-109.568 39.936-95.232 0-172.032-76.8-172.032-172.032s76.8-172.032 172.032-172.032c41.984 0 80.896 15.36 110.592 40.96l290.816-167.936c-2.048-9.216-2.048-18.432-2.048-28.672 0-95.232 76.8-172.032 172.032-172.032s172.032 76.8 172.032 172.032c-1.024 95.232-77.824 172.032-173.056 172.032z" />
<glyph unicode="&#xe62e;" glyph-name="SOC" d="M277.504 450.048c-26.624-10.24-81.92-33.792-114.688-46.080 5.12-67.584 11.264-160.768 23.552-201.728 22.528-22.528 62.464-58.368 108.544-90.112 25.6 2.048 101.376 11.264 171.008 40.96-2.048 28.672-5.12 94.208-5.12 153.6-34.816 27.648-174.080 135.168-183.296 143.36zM917.504 360.96c7.168 29.696 18.432 84.992 20.48 135.168-23.552 49.152-80.896 118.784-120.832 164.864-26.624-10.24-78.848-28.672-106.496-37.888-1.024-40.96-10.24-179.2-28.672-236.544 24.576-24.576 66.56-70.656 90.112-104.448 57.344 25.6 130.048 61.44 145.408 78.848zM320.512 641.536c-7.168-35.84-20.48-112.64-26.624-167.936l1.024 2.048c1.024-1.024 148.48-116.736 184.32-144.384 37.888 11.264 129.024 41.984 173.056 66.56 15.36 50.176 23.552 173.056 26.624 229.376-45.056 39.936-110.592 84.992-140.288 104.448-69.632-21.504-184.32-74.752-218.112-90.112zM513.024 942.592c-269.312 0-488.448-220.16-488.448-489.472s219.136-489.472 489.472-489.472 489.472 219.136 489.472 489.472-220.16 489.472-490.496 489.472zM700.416 56.832c-8.192-4.096-18.432-8.192-26.624-11.264l-25.6 65.536c-29.696 1.024-101.376 7.168-154.624 20.48-60.416-29.696-124.928-41.984-164.864-47.104 8.192-10.24 19.456-25.6 29.696-38.912-87.040 33.792-159.744 94.208-210.944 171.008l7.168 1.024c-11.264 61.44-18.432 164.864-20.48 214.016-5.12 13.312-9.216 25.6-13.312 37.888-6.144 20.48-11.264 50.176-16.384 68.608-7.168-5.12-15.36-10.24-20.48-15.36 1.024 17.408 4.096 31.744 8.192 47.104 9.216 6.144 18.432 11.264 21.504 14.336 18.432 33.792 49.152 93.184 78.848 120.832 7.168 26.624 20.48 55.296 33.792 80.896 19.456 16.384 38.912 31.744 60.416 45.056-19.456-30.72-47.104-77.824-61.44-121.856 21.504-9.216 60.416-23.552 86.016-35.84 37.888 16.384 148.48 68.608 222.208 90.112 16.384 39.936 28.672 68.608 33.792 84.992-35.84 14.336-81.92 38.912-114.688 50.176 20.48 4.096 40.96 11.264 61.44 11.264 4.096 0 7.168 0 10.24 0 30.72-20.48 60.416-29.696 78.848-41.984 51.2-6.144 102.4-27.648 130.048-38.912 5.12 1.024 10.24-1.024 16.384 0 13.312-8.192 24.576-17.408 35.84-26.624-6.144-1.024-13.312-2.048-19.456-2.048 16.384-24.576 33.792-61.44 47.104-90.112 32.768-34.816 94.208-107.52 132.096-168.96 6.144-26.624 8.192-55.296 8.192-84.992 0-59.392-11.264-115.712-32.768-166.912-1.024 11.264-4.096 23.552-6.144 33.792-41.984-26.624-119.808-63.488-151.552-77.824-21.504-33.792-64.512-98.304-90.112-123.904l27.648-64.512z" />
<glyph unicode="&#xe62f;" glyph-name="solid-flag" d="M255.642 191.604l46.996-175.392c3.965-14.799-4.123-29.819-18.921-33.785s-29.313 4.999-33.278 19.798l-195.932 731.226c-13.796 5.148-24.978 16.667-29.078 31.971-6.735 25.134 8.174 50.976 33.321 57.715 25.134 6.734 50.98-8.188 57.715-33.322 4.166-15.547 0.045-31.367-9.654-42.767l10.623-39.643c26.266 30.139 85.064 81.92 196.352 111.74 74.541 19.973 132.197 8.791 187.928-2.040 53.883-10.458 104.799-20.341 170.205-2.816 133.096 35.663 185.37 84.399 185.896 84.89l15.361 15.333 127.014-474.024-0.965-4.385c-2.007-3.838-49.016-93.991-179.88-129.056-61.948-16.599-110.536-8.778-161.989-0.494-56.744 9.132-115.42 18.587-200.284-4.152-136.769-36.648-189.597-95.481-201.43-110.798z" />
<glyph unicode="&#xe630;" glyph-name="star" d="M512 910.848l114.688-354.304h371.712l-301.056-217.088 115.712-354.304-301.056 218.112-301.056-218.112 115.712 354.304-301.056 217.088h371.712z" />
<glyph unicode="&#xe631;" glyph-name="swap" d="M512 941.568c-273.408 0-493.568-220.16-493.568-493.568s220.16-493.568 493.568-493.568 493.568 220.16 493.568 493.568-220.16 493.568-493.568 493.568zM462.848 810.496v-117.76h257.024v-122.88h-257.024v-129.024l-291.84 184.32 291.84 185.344zM561.152 98.816v129.024h-257.024v122.88h257.024v120.832l291.84-186.368-291.84-186.368z" />
<glyph unicode="&#xe632;" glyph-name="three-heads" horiz-adv-x="1360" d="M971.321 265.5c-61.781 28.217-120.491 63.033-181.020 94.094-13.995 7.168-22.528 16.839-20.935 31.972 3.3 33.337 7.964 66.56 12.629 99.669 0.455 3.413 3.3 7.509 6.144 9.216 23.097 13.995 44.601 69.973 34.475 93.753-2.048 4.665-8.761 7.509-13.312 11.036 1.82 0.455-0.455 1.138 1.252 1.593 0 28.672 3.413 57.458 1.593 86.016-3.186 52.452-55.751 100.238-106.837 107.748-7.737 1.138-25.486 4.665-39.708 4.665-0.114 0-0.114 0-0.228 0s-0.114 0-0.228 0c-13.653 0-29.127-3.3-39.708-4.665-47.787-6.485-103.765-55.41-106.837-107.748-1.593-28.558 1.593-57.344 1.593-86.016 1.82-0.455-0.455-1.138 1.252-1.593-4.551-3.641-11.264-6.372-13.312-11.036-10.012-23.78 11.378-79.758 34.475-93.753 2.958-1.82 5.689-5.916 6.144-9.216 4.551-33.223 9.216-66.332 12.629-99.669 1.479-15.132-7.054-24.804-20.935-31.972-60.53-31.061-119.239-65.991-181.020-94.094-51.655-23.552-68.38-36.523-68.38-88.405l1.024-86.13c107.975-0.114 231.31-0.114 354.418-0.114 8.078 0 16.156 0 24.235 0 0.114 0 0.228 0 0.341 0 7.851 0 15.701 0 23.552 0 119.58 0 238.706 0 343.495 0.114l1.024 86.13c0.455 51.996-16.156 64.853-67.812 88.405zM1230.62 392.363c-44.146 20.139-85.902 44.942-129.024 67.129-10.012 5.234-16.043 11.947-15.019 22.756 2.389 23.78 5.689 47.332 8.988 71.111 0.341 2.389 2.276 5.348 4.437 6.599 16.498 10.012 31.858 49.948 24.69 66.788-1.365 3.3-6.144 5.348-9.444 7.851 1.252 0.341-0.341 0.796 0.91 1.138 0 20.48 2.389 40.96 1.252 61.44-2.276 37.433-39.708 79.986-76.231 85.447-5.575 0.796-18.204 3.3-28.331 3.3-0.114 0-0.114 0-0.228 0s-0.114 0-0.228 0c-9.671 0-20.821-2.389-28.331-3.413-34.020-4.551-74.069-48.014-76.231-85.447-1.252-20.366 1.252-40.96 1.252-61.44 1.252-0.341-0.341-0.796 0.91-1.138-3.3-2.503-7.964-4.551-9.444-7.851-7.168-16.953 8.078-56.889 24.69-66.788 2.162-1.252 4.096-4.21 4.437-6.599 3.3-23.666 6.599-47.332 8.988-71.111 1.024-10.695-5.006-17.636-15.019-22.756-40.96-20.935-69.973-39.026-100.58-52.793l-0.228-13.767 236.43-125.042c0.114 0 0.228 0 0.341 0 5.575 0 10.923 0 16.156 0 80.555 0 127.886 0 202.638 0.114l0.796 61.44c0.114 37.205-11.833 46.308-48.583 63.033zM520.078 409.543c-28.217 12.743-60.302 27.762-103.31 50.062-10.012 5.234-16.043 11.947-15.019 22.756 2.389 23.78 5.689 47.332 8.988 71.111 0.341 2.389 2.276 5.348 4.437 6.599 16.498 10.012 31.858 49.948 24.69 66.788-1.365 3.3-6.144 5.348-9.444 7.851 1.252 0.341-0.341 0.796 0.91 1.138 0 20.48 2.389 40.96 1.252 61.44-2.276 37.433-42.212 80.896-76.231 85.447-7.509 1.024-18.432 3.413-28.331 3.413-0.114 0-0.114 0-0.228 0s-0.114 0-0.228 0c-10.012 0-22.756-2.503-28.331-3.3-36.523-5.461-74.069-48.014-76.231-85.447-1.252-20.366 1.252-40.96 1.252-61.44 1.252-0.341-0.341-0.796 0.91-1.138-3.3-2.503-7.964-4.551-9.444-7.851-7.168-16.953 8.078-56.889 24.69-66.788 2.162-1.252 4.096-4.21 4.437-6.599 3.3-23.666 6.599-47.332 8.988-71.111 1.024-10.695-5.006-17.636-15.019-22.756-43.122-22.073-84.992-46.99-129.024-67.129-36.75-16.839-48.583-26.055-48.583-63.033l0.796-61.44c74.752-0.114 118.443-0.114 198.542-0.114 5.234 0 10.581 0 16.156 0 0.114 0 0.228 0 0.341 0l242.802 129.024 0.228 12.516z" />
<glyph unicode="&#xe633;" glyph-name="ticket" d="M982.13 832.91c0 47.218-38.571 85.788-85.788 85.788h-769.138c-47.218 0-85.788-38.571-85.788-85.788v-770.162c0-47.218 38.571-85.788 85.788-85.788h770.162c47.218 0 85.788 38.571 85.788 85.788v770.162h-1.024zM740.124 619.804h-142.564v-455.908h-157.127v455.908h-157.127v141.767h455.908v-141.653h0.91z" />
<glyph unicode="&#xe634;" glyph-name="question-mark" d="M506.88 935.424c-267.264 0-485.376-218.112-485.376-485.376s217.088-485.376 485.376-485.376 485.376 217.088 485.376 485.376-218.112 485.376-485.376 485.376zM502.784 124.416c-47.104 0-83.968 36.864-83.968 83.968s36.864 83.968 83.968 83.968 83.968-36.864 83.968-83.968c0-46.080-38.912-83.968-83.968-83.968zM707.584 525.824c-15.36-25.6-40.96-48.128-76.8-70.656-29.696-18.432-48.128-32.768-55.296-43.008-7.168-8.192-11.264-19.456-11.264-31.744v-19.456h-130.048v36.864c0 26.624 6.144 51.2 17.408 69.632s31.744 36.864 59.392 55.296c22.528 14.336 39.936 26.624 50.176 37.888s15.36 24.576 15.36 39.936c0 11.264-6.144 21.504-15.36 28.672-11.264 7.168-24.576 10.24-40.96 10.24-43.008 0-92.16-15.36-149.504-45.056l-58.368 114.688c69.632 39.936 143.36 59.392 219.136 59.392 62.464 0 112.64-14.336 147.456-40.96 35.84-26.624 54.272-65.536 54.272-112.64-2.048-35.84-10.24-63.488-25.6-89.088z" />
<glyph unicode="&#xe635;" glyph-name="trash" d="M845.824 819.712c0 16.384-14.336 30.72-30.72 30.72h-189.44v51.2c0 16.384-14.336 30.72-30.72 30.72h-165.888c-16.384 0-30.72-14.336-30.72-30.72v-51.2h-189.44c-16.384 0-30.72-14.336-30.72-30.72v-40.96c0-16.384 14.336-30.72 30.72-30.72l607.232 1.024c16.384 0 30.72 14.336 30.72 30.72v39.936zM800.768 686.592l-576.512-1.024c-16.384 0-30.72-15.36-30.72-31.744l32.768-658.432c0-16.384 14.336-31.744 30.72-31.744l515.072 1.024c16.384 0 30.72 14.336 30.72 30.72l29.696 658.432c-2.048 18.432-14.336 33.792-31.744 32.768zM344.064 102.912h-1.024c-16.384 0-30.72 13.312-30.72 29.696l-16.384 382.976c-1.024 17.408 13.312 31.744 29.696 31.744 17.408 1.024 31.744-13.312 31.744-29.696l16.384-382.976c0-17.408-13.312-30.72-29.696-31.744zM526.336 103.936c-17.408 0-30.72 14.336-30.72 30.72l-1.024 382.976c0 17.408 14.336 30.72 30.72 30.72 17.408 0 30.72-14.336 30.72-30.72l1.024-382.976c0-18.432-13.312-30.72-30.72-30.72zM726.016 132.608c-1.024-16.384-14.336-29.696-30.72-29.696h-1.024c-17.408 1.024-30.72 15.36-29.696 31.744l14.336 385.024c1.024 16.384 14.336 30.72 31.744 29.696s30.72-15.36 29.696-31.744l-14.336-385.024z" />
<glyph unicode="&#xe636;" glyph-name="friends" d="M619.008 301.158l0.102 0.102c-0.41 0.205-0.717 0.307-1.126 0.512-54.886 24.986-107.11 56.013-160.87 83.661-12.39 6.349-18.637 43.213-18.637 43.213 2.97 29.594 7.168 44.339 11.162 73.83 0.41 2.97 2.867 6.656 5.53 8.192 20.582 12.493 39.629 62.259 30.72 83.251-1.741 4.198-7.68 6.554-11.776 9.83 1.536 0.512-0.41 0.922 1.126 1.434 0 25.498 2.97 51.098 1.536 76.493-2.765 46.592-49.459 89.088-95.027 95.744-6.861 1.024-22.733 4.198-35.226 4.198-12.186 0-26.010-2.97-35.226-4.198-42.394-5.632-92.262-49.254-95.027-95.744-1.536-25.395 1.536-50.995 1.536-76.493 1.536-0.512-0.41-0.922 1.126-1.434-3.994-3.174-9.933-5.632-11.776-9.83-8.909-21.094 10.138-70.758 30.72-83.251 2.56-1.536 5.12-5.222 5.53-8.192 4.096-29.491 8.294-44.237 11.162-73.83 0 0-6.246-36.864-18.637-43.213-53.76-27.648-105.882-58.573-160.87-83.661-45.875-20.89-60.723-32.358-60.723-78.643l0.512-41.779c0-0.102 0.102-0.205 0.102-0.41l0.205-26.214 0.102-8.090c0-15.77 13.414-30.618 27.136-30.618 95.949 0 511.59 0 607.949 0 12.186 0 24.166 9.011 26.522 24.883 0.307 1.843 0.41 3.686 0.41 5.734l0.922 76.493c0.205 45.773-14.438 57.549-59.187 78.029zM958.771 381.235v0c-0.205 0.205-0.512 0.41-0.819 0.512-45.158 20.582-88.064 46.080-132.198 68.71-10.24 5.222-15.36 35.533-15.36 35.533 2.458 24.371 5.837 36.454 9.216 60.621 0.307 2.458 2.355 5.427 4.506 6.758 16.896 10.24 32.563 51.098 25.19 68.506-1.434 3.379-6.349 5.427-9.626 8.090 1.229 0.41-0.41 0.819 0.922 1.229 0 20.992 2.458 41.984 1.229 62.874-2.253 38.298-40.653 73.216-78.029 78.746-5.632 0.819-18.637 3.379-28.979 3.379-10.035 0-21.299-2.458-28.979-3.379-34.816-4.71-75.776-40.448-78.029-78.746-1.229-20.89 1.229-41.882 1.229-62.874 1.229-0.41-0.41-0.819 0.922-1.229-3.277-2.662-8.192-4.608-9.626-8.090-7.373-17.306 8.294-58.163 25.19-68.506 2.15-1.331 4.198-4.301 4.506-6.758 3.379-24.269 6.758-36.352 9.216-60.621 0 0-5.12-30.31-15.36-35.533-27.238-14.029-54.067-29.082-81.203-43.418 0.922-0.922 1.843-1.638 2.867-2.15 49.254-25.293 97.178-53.76 147.456-76.698 0.307-0.205 0.717-0.307 1.024-0.512l-0.102-0.102c41.062-18.842 54.374-32.563 54.374-74.445l-0.102-8.909c-0.102 0-0.102 0-0.205 0v-12.288c95.437 0 180.429 0 216.576 0 9.83 0 19.558 0 21.709 12.288 0 0 0.102 0 0.205 0 0.205 0 0.307 5.734 0.307 7.373l0.717 64.205c0 37.581-11.981 48.538-48.742 65.434z" />
<glyph unicode="&#xe637;" glyph-name="upcoming" d="M714.752 287.872l-153.6 184.32-27.648 276.48c-1.024 13.312-13.312 24.576-26.624 23.552s-25.6-11.264-26.624-24.576c0 0-23.552-308.224-23.552-309.248 0-7.168 2.048-14.336 8.192-18.432l214.016-171.008c9.216-7.168 24.576-6.144 33.792 4.096 9.216 11.264 10.24 25.6 2.048 34.816zM512 869.504c223.232 0 405.504-181.248 405.504-405.504s-182.272-405.504-405.504-405.504-405.504 182.272-405.504 405.504 182.272 405.504 405.504 405.504zM512 944.256c-265.216 0-480.256-215.040-480.256-480.256s215.040-480.256 480.256-480.256 480.256 215.040 480.256 480.256-215.040 480.256-480.256 480.256v0z" />
<glyph unicode="&#xe638;" glyph-name="friend-plus" d="M852.423 264.135h-94.436v94.436c0 6.94-5.916 12.743-12.743 12.743h-24.576c-6.94 0-12.743-5.916-12.743-12.743v-94.436h-94.436c-6.94 0-12.743-5.916-12.743-12.743v-24.576c0-6.94 5.916-12.743 12.743-12.743h94.436v-94.436c0-6.94 5.916-12.743 12.743-12.743h24.576c6.94 0 12.743 5.916 12.743 12.743v94.436h94.436c6.94 0 12.743 5.916 12.743 12.743v24.576c0 5.916-5.916 12.743-12.743 12.743zM732.388-27.819c-147.228 0-266.923 119.694-266.923 266.923s119.694 266.923 266.923 266.923 266.923-119.694 266.923-266.923c0-147.228-119.694-266.923-266.923-266.923zM732.388 466.66c-125.497 0-227.556-102.059-227.556-227.556s102.059-227.556 227.556-227.556 227.556 102.059 227.556 227.556-102.059 227.556-227.556 227.556zM499.598 241.38c0 84.537 45.511 158.72 113.436 199.111-6.144 3.3-12.402 6.485-18.546 9.671-14.45 7.396-21.732 50.176-21.732 50.176 3.413 34.475 8.306 51.541 12.971 85.788 0.569 3.527 3.413 7.737 6.485 9.557 23.893 14.564 45.966 72.363 35.612 96.825-2.048 4.779-8.988 7.737-13.653 11.378 1.82 0.569-0.569 1.138 1.252 1.593 0 29.582 3.527 59.278 1.707 88.86-3.186 54.158-57.458 103.538-110.364 111.275-7.964 1.252-26.396 4.779-40.846 4.779-14.108 0-30.151-3.413-40.846-4.779-49.266-6.599-107.179-57.23-110.364-111.275-1.707-29.468 1.707-59.278 1.707-88.86 1.82-0.569-0.569-1.138 1.252-1.593-4.665-3.755-11.605-6.599-13.653-11.378-10.354-24.462 11.833-82.261 35.612-96.825 3.072-1.82 5.916-6.030 6.485-9.557 4.665-34.247 9.671-51.314 12.971-85.788 0 0-7.282-42.78-21.732-50.176-62.464-32.085-123.108-68.153-186.937-97.28-53.248-24.235-70.656-37.66-70.542-91.364l0.569-48.583 0.569-40.277c0-18.318 15.588-35.612 31.516-35.612 63.147 0 245.305 0 411.876 0-15.815 31.516-24.804 66.901-24.804 104.334z" />
<glyph unicode="&#xe639;" glyph-name="one-head" d="M863.801 263.452l0.114 0.114c-0.455 0.228-0.91 0.455-1.479 0.683-70.884 32.313-138.126 72.249-207.531 107.975-16.043 8.192-24.121 55.751-24.121 55.751 3.755 38.229 9.216 57.23 14.45 95.232 0.569 3.868 3.755 8.533 7.168 10.581 26.51 16.156 51.086 80.327 39.595 107.52-2.276 5.348-10.012 8.533-15.132 12.629 2.048 0.569-0.569 1.252 1.365 1.82 0 32.882 3.868 65.877 1.934 98.645-3.527 60.075-63.829 114.916-122.539 123.563-8.875 1.365-29.355 5.348-45.397 5.348-15.701 0-33.451-3.755-45.397-5.348-54.727-7.282-119.012-63.488-122.539-123.563-1.934-32.768 1.934-65.764 1.934-98.645 2.048-0.569-0.569-1.252 1.365-1.82-5.234-4.21-12.857-7.282-15.132-12.629-11.492-27.193 13.084-91.364 39.595-107.52 3.413-2.048 6.599-6.713 7.168-10.581 5.234-38.002 10.695-57.003 14.45-95.232 0 0-8.078-47.559-24.121-55.751-69.404-35.612-136.647-75.662-207.531-107.975-59.164-26.965-78.393-41.87-78.279-101.49l0.569-53.931 0.569-44.715c0-20.366 17.294-39.481 35.044-39.481 123.904 0 660.139 0 784.498 0 15.701 0 31.289 11.605 34.247 32.085 0.341 2.389 0.569 4.779 0.569 7.396l1.138 98.759c0 59.051-18.773 74.183-76.572 100.58z" />
<glyph unicode="&#xe63a;" glyph-name="circle-check" horiz-adv-x="791" d="M394.343 831.741c-211.265 0-382.19-170.925-382.19-382.19s170.925-382.19 382.19-382.19 382.19 170.925 382.19 382.19-170.925 382.19-382.19 382.19zM650.861 588.541l-344.695-344.695-164.719 164.59c-5.43 6.077-5.43 15.386 0 20.816l36.719 37.366c6.077 5.43 15.386 5.43 20.816 0l108.089-108.089 285.349 288.194c6.077 5.43 15.386 5.43 20.816 0l37.366-37.366c5.689-6.077 5.689-14.739 0.259-20.816z" />
<glyph unicode="&#xe63b;" glyph-name="arrow-left" d="M176.128 449.024v-1.024l468.992-467.968c12.288-12.288 31.744-12.288 43.008 0l48.128 48.128c12.288 12.288 12.288 31.744 0 43.008l-376.832 375.808v1.024l376.832 376.832c12.288 12.288 12.288 31.744 0 43.008l-48.128 48.128c-12.288 12.288-31.744 12.288-43.008 0l-468.992-466.944z" />
<glyph unicode="&#xe63c;" glyph-name="arrow-right" d="M846.848 446.976v1.024l-467.968 467.968c-12.288 12.288-31.744 12.288-43.008 0l-48.128-48.128c-12.288-12.288-12.288-31.744 0-43.008l376.832-376.832v-1.024l-376.832-375.808c-12.288-12.288-12.288-31.744 0-43.008l48.128-48.128c12.288-12.288 31.744-12.288 43.008 0l467.968 466.944z" />
<glyph unicode="&#xe63d;" glyph-name="lineup-ready" horiz-adv-x="951" d="M284.16 655.872h179.2c17.408 0 30.72 13.312 30.72 30.72s-13.312 30.72-30.72 30.72h-179.2c-17.408 0-30.72-13.312-30.72-30.72s13.312-30.72 30.72-30.72zM894.464 400.896c6.144 6.144 6.144 16.384 0 23.552l-23.552 23.552c-6.144 6.144-16.384 6.144-23.552 0l-198.656-200.704-84.992 84.992c-6.144 6.144-16.384 6.144-23.552 0l-23.552-23.552c-6.144-6.144-6.144-16.384 0-23.552l131.072-131.072 246.784 246.784zM876.032 332.288c5.12-19.456 8.192-39.936 8.192-60.416 0-130.048-106.496-236.544-236.544-236.544s-237.568 106.496-237.568 236.544c0 130.048 106.496 236.544 236.544 236.544 58.368 0 111.616-21.504 152.576-56.32l29.696 29.696v177.152c0 10.24-4.096 21.504-11.264 28.672l-190.464 200.704c-8.192 8.192-18.432 13.312-30.72 13.312h-430.080c-36.864 0-66.56-29.696-66.56-66.56v-768c0-36.864 29.696-66.56 66.56-66.56h418.816c19.456-4.096 39.936-7.168 61.44-7.168 152.576 0 277.504 124.928 277.504 277.504 0 32.768-6.144 64.512-16.384 93.184l-31.744-31.744zM178.688 52.736c-15.36 0-27.648 12.288-27.648 27.648v742.4c0 15.36 12.288 27.648 27.648 27.648h400.384v-139.264c0-37.888 30.72-69.632 68.608-69.632h130.048v-125.952c-34.816 18.432-74.752 30.72-116.736 32.768-5.12 0-28.672 1.024-34.816 1.024h-345.088c-17.408 0-30.72-13.312-30.72-30.72s13.312-30.72 30.72-30.72h193.536c-34.816-27.648-63.488-64.512-81.92-106.496h-112.64c-17.408 0-30.72-13.312-30.72-30.72s13.312-30.72 30.72-30.72h94.208c-3.072-16.384-4.096-32.768-4.096-49.152s2.048-33.792 4.096-49.152h-94.208c-17.408 0-30.72-13.312-30.72-30.72s13.312-30.72 30.72-30.72h112.64c18.432-43.008 48.128-79.872 84.992-108.544h-299.008z" />
<glyph unicode="&#xe63e;" glyph-name="megaphone" horiz-adv-x="919" d="M556.519 761.51l-45.116-24.625c0 0-203.773-114.199-237.982-114.199l-125.934 1.818c-0.33 0-0.497 0-0.826 0-15.864 0-28.594-36.69-28.594-118.993s12.891-99.657 28.594-99.657c0.33 0 0.497 0 0.826 0v0l123.122-0.166c42.309 0 240.793-125.108 240.793-125.108l45.116-23.136c28.097 0 57.348 98.993 57.348 252.031-0.166 149.567-25.613 252.031-57.348 252.031zM646.422 582.856c0 0 5.289-28.755 5.289-74.535s-5.289-74.206-5.289-74.206c40.322 0 74.368 33.218 74.368 74.368s-34.044 74.368-74.368 74.368zM258.875 345.368c-7.272 15.206-15.864 25.782-30.078 25.782h-53.547c-14.213 0-25.122-12.724-19.336-25.782l48.588-130.723c7.768-15.702 15.864-25.782 30.078-25.782h51.233c14.213 0 28.258 9.587 21.484 25.782l-48.424 130.723zM801.937 754.071c-6.942 7.272-18.51 7.6-25.782 0.659s-7.6-18.51-0.659-25.782c56.852-60.156 88.085-138.988 88.085-222.116 0-82.8-31.4-161.464-88.251-221.62-6.942-7.272-6.613-18.839 0.659-25.782 3.47-3.304 8.097-4.956 12.561-4.956 4.793 0 9.749 1.982 13.22 5.787 63.296 66.935 98.167 154.69 98.167 246.741 0.166 92.381-34.704 180.14-98 247.070zM759.796 679.869c-6.775 7.438-18.343 7.934-25.782 1.155s-7.934-18.343-1.155-25.782c37.186-40.657 57.678-93.374 57.678-148.244 0-56.193-21.154-109.736-59.659-150.889-6.942-7.438-6.445-19.007 0.826-25.782 3.47-3.304 8.097-4.956 12.561-4.956 4.956 0 9.749 1.982 13.388 5.787 44.786 47.929 69.575 110.399 69.575 175.845-0.33 63.955-24.13 125.438-67.428 172.87zM94.767 599.878c-11.406-0.166-21.981-0.166-26.606-0.166-15.864-0.166-28.594-8.097-27.93-90.567 0.659-82.303 18.013-60.321 29.252-70.898l25.45 0.166c-5.619 22.31-8.428 31.73-8.428 71.395 0 39.336 2.808 67.922 8.264 90.070z" />
<glyph unicode="&#xe63f;" glyph-name="video" horiz-adv-x="951" d="M896.833 673.399c-5.928 3.41-12.005 5.185-18.671 5.185s-13.635-1.78-19.563-5.185l-141.377-81.507v-236.072l141.377-81.507c5.928-3.41 12.743-5.185 19.413-5.185s12.892 1.78 18.82 5.185c12.005 6.965 18.82 19.708 18.82 33.492v332.101c0 13.78-6.815 26.527-18.82 33.492zM603.704 725.861h-510.53c-28.452 0-51.57-23.267-51.57-51.57v-398.642c0-28.452 23.267-51.57 51.57-51.57h510.53c28.452 0 51.57 23.267 51.57 51.57v398.642c0.149 28.307-23.118 51.57-51.57 51.57zM544.277 596.782h-391.528c-17.339 0-31.563 14.228-31.563 31.563s14.228 31.563 31.563 31.563h391.528c17.339 0 31.563-14.228 31.563-31.563s-14.228-31.563-31.563-31.563z" />
<glyph unicode="&#xe640;" glyph-name="edit" d="M915.456 591.36l61.44 61.44c19.456 19.456 19.456 52.224 0 72.704l-178.176 178.176c-19.456 19.456-52.224 19.456-72.704 0l-61.44-61.44 250.88-250.88zM858.112 532.992l-250.88 250.88-470.016-470.016c-7.168-7.168-11.264-14.336-13.312-23.552v0l-69.632-260.096c-8.192-30.72 19.456-58.368 50.176-50.176l260.096 69.632c8.192 2.048 16.384 6.144 23.552 13.312l470.016 470.016zM569.344 629.248c19.456 19.456 52.224 19.456 72.704 0l59.392-59.392c19.456-19.456 19.456-52.224 0-72.704l-285.696-285.696c-19.456-19.456-52.224-19.456-72.704 0l-59.392 59.392c-19.456 19.456-19.456 52.224 0 72.704l285.696 285.696zM154.624 44.544l-32.768 32.768 45.056 180.224 38.912-65.536 52.224-15.36 13.312-56.32 57.344-30.72-174.080-45.056z" />
<glyph unicode="&#xe641;" glyph-name="Bo3" d="M261.12 427.52h-32.768v-102.4h33.792c14.336 0 24.576 4.096 31.744 13.312 7.168 8.192 10.24 22.528 10.24 39.936 1.024 31.744-14.336 49.152-43.008 49.152zM519.168 493.056c-14.336 0-24.576-7.168-30.72-21.504s-9.216-36.864-9.216-65.536c0-28.672 3.072-51.2 9.216-65.536s16.384-22.528 30.72-22.528c26.624 0 39.936 29.696 39.936 88.064 0 28.672-3.072 51.2-9.216 65.536-7.168 14.336-17.408 21.504-30.72 21.504zM870.4 794.112h-716.8c-50.176 0-91.136-40.96-91.136-91.136v-510.976c0-50.176 40.96-91.136 91.136-91.136h715.776c50.176 0 91.136 40.96 91.136 91.136v512c0 49.152-40.96 90.112-90.112 90.112zM348.16 294.4c-17.408-18.432-41.984-27.648-72.704-27.648h-109.568v364.544h93.184c37.888 0 65.536-7.168 82.944-22.528 17.408-14.336 25.6-37.888 25.6-70.656 0-21.504-4.096-38.912-13.312-53.248s-21.504-22.528-37.888-25.6v-2.048c20.48-5.12 35.84-14.336 45.056-28.672s13.312-32.768 13.312-56.32c-1.024-32.768-9.216-59.392-26.624-77.824zM599.040 299.52c-19.456-25.6-46.080-37.888-79.872-37.888-21.504 0-39.936 6.144-56.32 17.408s-28.672 28.672-37.888 50.176c-9.216 21.504-13.312 47.104-13.312 76.8 0 45.056 9.216 80.896 28.672 105.472 19.456 25.6 46.080 37.888 79.872 37.888 32.768 0 59.392-13.312 78.848-38.912 18.432-25.6 28.672-60.416 28.672-104.448-1.024-47.104-9.216-80.896-28.672-106.496zM827.392 289.28c-20.48-20.48-49.152-29.696-86.016-29.696-32.768 0-59.392 6.144-81.92 17.408v61.44c11.264-7.168 22.528-12.288 35.84-15.36 13.312-4.096 25.6-6.144 36.864-6.144 19.456 0 33.792 4.096 44.032 13.312s14.336 22.528 14.336 41.984c0 36.864-22.528 54.272-67.584 54.272h-20.48v51.2h19.456c19.456 0 34.816 5.12 46.080 14.336 10.24 9.216 15.36 23.552 15.36 41.984 0 14.336-3.072 25.6-10.24 32.768s-16.384 11.264-28.672 11.264c-18.432 0-36.864-8.192-55.296-23.552l-30.72 45.056c24.576 24.576 55.296 36.864 93.184 36.864 30.72 0 55.296-8.192 72.704-23.552 20.48-16.384 28.672-36.864 28.672-64.512 0-22.528-6.144-41.984-17.408-58.368-11.264-15.36-27.648-26.624-48.128-32.768v-2.048c22.528-4.096 40.96-12.288 53.248-26.624s18.432-33.792 18.432-58.368c-1.024-32.768-11.264-60.416-31.744-80.896zM291.84 496.128c6.144 7.168 9.216 19.456 9.216 33.792 0 15.36-3.072 25.6-10.24 32.768-7.168 6.144-17.408 10.24-31.744 10.24h-28.672v-88.064h30.72c13.312-1.024 23.552 4.096 30.72 11.264z" />
<glyph unicode="&#xe642;" glyph-name="Bo5" d="M261.12 429.568h-32.768v-102.4h33.792c14.336 0 24.576 4.096 31.744 13.312 7.168 8.192 10.24 22.528 10.24 39.936 1.024 32.768-14.336 49.152-43.008 49.152zM519.168 494.080c-14.336 0-24.576-7.168-30.72-21.504s-9.216-35.84-9.216-65.536c0-28.672 3.072-51.2 9.216-65.536s16.384-22.528 30.72-22.528c26.624 0 39.936 29.696 39.936 88.064 0 28.672-3.072 51.2-9.216 65.536-7.168 14.336-17.408 21.504-30.72 21.504zM870.4 794.112h-716.8c-50.176 0-91.136-40.96-91.136-91.136v-510.976c0-50.176 40.96-91.136 91.136-91.136h715.776c50.176 0 91.136 40.96 91.136 91.136v512c0 49.152-40.96 90.112-90.112 90.112zM348.16 296.448c-17.408-18.432-41.984-27.648-72.704-27.648h-109.568v364.544h93.184c37.888 0 65.536-7.168 82.944-22.528 17.408-14.336 25.6-37.888 25.6-70.656 0-21.504-4.096-38.912-13.312-53.248s-21.504-22.528-37.888-25.6v-2.048c20.48-5.12 35.84-14.336 45.056-28.672s13.312-32.768 13.312-56.32c-1.024-31.744-9.216-59.392-26.624-77.824zM598.016 301.568c-19.456-25.6-46.080-37.888-79.872-37.888-21.504 0-39.936 6.144-56.32 17.408s-28.672 28.672-37.888 50.176c-9.216 21.504-13.312 47.104-13.312 76.8 0 45.056 9.216 80.896 28.672 105.472 19.456 25.6 46.080 37.888 79.872 37.888 32.768 0 59.392-13.312 78.848-38.912 19.456-24.576 28.672-59.392 28.672-104.448 0-47.104-10.24-80.896-28.672-106.496zM829.44 295.424c-20.48-22.528-48.128-32.768-83.968-32.768-31.744 0-58.368 6.144-77.824 18.432v64.512c8.192-6.144 19.456-11.264 32.768-16.384s25.6-7.168 36.864-7.168c35.84 0 53.248 20.48 53.248 62.464 0 38.912-17.408 58.368-52.224 58.368-14.336 0-28.672-3.072-44.032-8.192l-21.504 16.384 11.264 183.296h155.648v-60.416h-97.28l-5.12-78.848c9.216 1.024 20.48 2.048 32.768 2.048 27.648 0 49.152-9.216 65.536-28.672s24.576-45.056 24.576-78.848c0-40.96-10.24-71.68-30.72-94.208zM291.84 497.152c6.144 7.168 9.216 19.456 9.216 33.792 0 15.36-3.072 25.6-10.24 32.768-7.168 6.144-17.408 10.24-31.744 10.24h-28.672v-88.064h30.72c13.312 1.024 23.552 4.096 30.72 11.264z" />
<glyph unicode="&#xe643;" glyph-name="Bo7" d="M517.12 494.080c-14.336 0-24.576-7.168-30.72-21.504-5.12-14.336-9.216-35.84-9.216-65.536 0-28.672 3.072-51.2 9.216-65.536s16.384-22.528 30.72-22.528c26.624 0 39.936 29.696 39.936 88.064 0 28.672-3.072 51.2-9.216 65.536-5.12 14.336-15.36 21.504-30.72 21.504zM261.12 429.568h-32.768v-102.4h33.792c14.336 0 24.576 4.096 31.744 13.312 7.168 8.192 10.24 22.528 10.24 39.936 1.024 32.768-14.336 49.152-43.008 49.152zM291.84 497.152c6.144 7.168 9.216 19.456 9.216 33.792 0 15.36-3.072 25.6-10.24 32.768-7.168 6.144-17.408 10.24-31.744 10.24h-28.672v-88.064h30.72c13.312 1.024 23.552 4.096 30.72 11.264zM870.4 794.112h-716.8c-50.176 0-91.136-40.96-91.136-91.136v-510.976c0-50.176 40.96-91.136 91.136-91.136h715.776c50.176 0 91.136 40.96 91.136 91.136v512c0 49.152-40.96 90.112-90.112 90.112zM346.112 296.448c-17.408-18.432-41.984-27.648-72.704-27.648h-109.568v364.544h93.184c37.888 0 65.536-7.168 82.944-22.528 17.408-14.336 25.6-37.888 25.6-70.656 0-21.504-4.096-38.912-13.312-53.248s-21.504-22.528-37.888-25.6v-2.048c20.48-5.12 35.84-14.336 45.056-28.672s13.312-32.768 13.312-56.32c1.024-31.744-9.216-59.392-26.624-77.824zM598.016 301.568c-19.456-25.6-46.080-37.888-79.872-37.888-21.504 0-39.936 6.144-56.32 17.408s-28.672 28.672-37.888 50.176c-9.216 21.504-13.312 47.104-13.312 76.8 0 45.056 9.216 80.896 28.672 105.472 19.456 25.6 46.080 37.888 79.872 37.888 32.768 0 59.392-13.312 78.848-38.912 18.432-24.576 28.672-59.392 28.672-104.448 0-47.104-10.24-80.896-28.672-106.496zM860.16 586.24l-100.352-319.488h-69.632v1.024l102.4 305.152h-128v59.392h195.584v-46.080z" />
<glyph unicode="&#xe644;" glyph-name="G1" d="M870.4 794.112h-716.8c-50.176 0-91.136-40.96-91.136-91.136v-510.976c0-50.176 40.96-91.136 91.136-91.136h715.776c50.176 0 91.136 40.96 91.136 91.136v512c0 49.152-40.96 90.112-90.112 90.112zM517.12 261.632c-35.84-15.36-72.704-22.528-112.64-22.528-47.104 0-83.968 18.432-109.568 54.272s-38.912 88.064-38.912 156.672c0 65.536 14.336 116.736 44.032 153.6s70.656 55.296 122.88 55.296c32.768 0 63.488-8.192 93.184-25.6l-23.552-62.464c-23.552 13.312-45.056 20.48-64.512 20.48-28.672 0-52.224-13.312-68.608-38.912s-25.6-61.44-25.6-105.472c0-46.080 6.144-80.896 18.432-105.472s29.696-36.864 53.248-36.864c12.288 0 24.576 2.048 37.888 5.12v93.184h-50.176v68.608h123.904v-209.92zM749.568 243.2h-75.776v239.616c0 25.6 1.024 56.32 4.096 90.112-1.024-2.048-6.144-7.168-14.336-17.408s-24.576-26.624-48.128-51.2l-41.984 46.080 108.544 100.352h67.584v-407.552z" />
<glyph unicode="&#xe645;" glyph-name="G2" d="M870.4 794.112h-716.8c-50.176 0-91.136-40.96-91.136-91.136v-510.976c0-50.176 40.96-91.136 91.136-91.136h715.776c50.176 0 91.136 40.96 91.136 91.136v512c0 49.152-40.96 90.112-90.112 90.112zM510.976 261.632c-35.84-15.36-72.704-22.528-112.64-22.528-47.104 0-83.968 18.432-109.568 54.272s-38.912 88.064-38.912 156.672c0 65.536 14.336 116.736 44.032 153.6s70.656 55.296 122.88 55.296c32.768 0 63.488-8.192 93.184-25.6l-23.552-62.464c-23.552 13.312-45.056 20.48-64.512 20.48-28.672 0-52.224-13.312-68.608-38.912s-25.6-61.44-25.6-105.472c0-46.080 6.144-80.896 18.432-105.472s29.696-36.864 53.248-36.864c12.288 0 24.576 2.048 37.888 5.12v93.184h-50.176v68.608h123.904v-209.92zM557.056 243.2v56.32l72.704 102.4c19.456 28.672 33.792 49.152 40.96 63.488s13.312 26.624 16.384 38.912c3.072 12.288 5.12 25.6 5.12 38.912 0 15.36-3.072 27.648-10.24 34.816-7.168 8.192-16.384 11.264-27.648 11.264-10.24 0-19.456-3.072-27.648-8.192s-19.456-14.336-31.744-28.672l-41.984 45.056c19.456 22.528 37.888 36.864 54.272 45.056s34.816 12.288 54.272 12.288c32.768 0 58.368-9.216 76.8-28.672s27.648-46.080 27.648-80.896c0-15.36-2.048-30.72-5.12-44.032-3.072-14.336-8.192-27.648-15.36-41.984s-15.36-28.672-25.6-44.032-36.864-50.176-78.848-104.448v-2.048h134.144v-65.536h-218.112z" />
<glyph unicode="&#xe646;" glyph-name="G3" d="M870.4 794.112h-716.8c-50.176 0-91.136-40.96-91.136-91.136v-510.976c0-50.176 40.96-91.136 91.136-91.136h715.776c50.176 0 91.136 40.96 91.136 91.136v512c0 49.152-40.96 90.112-90.112 90.112zM510.976 261.632c-35.84-15.36-72.704-22.528-112.64-22.528-47.104 0-83.968 18.432-109.568 54.272s-38.912 88.064-38.912 156.672c0 65.536 14.336 116.736 44.032 153.6s70.656 55.296 122.88 55.296c32.768 0 63.488-8.192 93.184-25.6l-23.552-62.464c-23.552 13.312-45.056 20.48-64.512 20.48-28.672 0-52.224-13.312-68.608-38.912s-25.6-61.44-25.6-105.472c0-46.080 6.144-80.896 18.432-105.472s29.696-36.864 53.248-36.864c12.288 0 24.576 2.048 37.888 5.12v93.184h-50.176v68.608h123.904v-209.92zM740.352 273.92c-23.552-22.528-55.296-33.792-96.256-33.792-35.84 0-66.56 6.144-91.136 19.456v65.536c12.288-7.168 25.6-13.312 39.936-17.408s27.648-6.144 40.96-6.144c21.504 0 37.888 5.12 49.152 15.36s16.384 25.6 16.384 47.104c0 40.96-24.576 61.44-74.752 61.44h-23.552v56.32h22.528c22.528 0 38.912 5.12 51.2 15.36s17.408 25.6 17.408 47.104c0 16.384-4.096 28.672-11.264 36.864s-18.432 12.288-31.744 12.288c-21.504 0-41.984-9.216-61.44-26.624l-34.816 50.176c27.648 27.648 62.464 40.96 104.448 40.96 34.816 0 61.44-9.216 80.896-26.624 19.456-16.384 28.672-40.96 28.672-70.656 0-25.6-6.144-47.104-19.456-64.512-12.288-17.408-30.72-29.696-53.248-35.84v-2.048c25.6-4.096 46.080-14.336 59.392-29.696 14.336-16.384 21.504-37.888 21.504-65.536 1.024-37.888-11.264-66.56-34.816-89.088z" />
<glyph unicode="&#xe647;" glyph-name="G4" d="M650.24 497.152l-49.152-105.472h69.632v87.040l1.024 37.888 2.048 35.84h-2.048c-6.144-20.48-12.288-37.888-21.504-55.296zM870.4 794.112h-716.8c-50.176 0-91.136-40.96-91.136-91.136v-510.976c0-50.176 40.96-91.136 91.136-91.136h715.776c50.176 0 91.136 40.96 91.136 91.136v512c0 49.152-40.96 90.112-90.112 90.112zM501.76 261.632c-35.84-15.36-72.704-22.528-112.64-22.528-47.104 0-83.968 18.432-109.568 54.272s-38.912 88.064-38.912 156.672c0 65.536 14.336 116.736 44.032 153.6s70.656 55.296 122.88 55.296c32.768 0 63.488-8.192 93.184-25.6l-23.552-62.464c-23.552 13.312-45.056 20.48-64.512 20.48-28.672 0-52.224-13.312-68.608-38.912s-25.6-61.44-25.6-105.472c0-46.080 6.144-80.896 18.432-105.472s29.696-36.864 53.248-36.864c12.288 0 24.576 2.048 37.888 5.12v93.184h-50.176v68.608h123.904v-209.92zM785.408 330.24h-40.96v-86.016h-71.68v86.016h-133.12v61.44l123.904 261.12h80.896v-260.096h40.96v-62.464z" />
<glyph unicode="&#xe648;" glyph-name="G5" d="M870.4 794.112h-716.8c-50.176 0-91.136-40.96-91.136-91.136v-510.976c0-50.176 40.96-91.136 91.136-91.136h715.776c50.176 0 91.136 40.96 91.136 91.136v512c0 49.152-40.96 90.112-90.112 90.112zM509.952 261.632c-35.84-15.36-72.704-22.528-112.64-22.528-47.104 0-83.968 18.432-109.568 54.272s-38.912 88.064-38.912 156.672c0 65.536 14.336 116.736 44.032 153.6s70.656 55.296 122.88 55.296c32.768 0 63.488-8.192 93.184-25.6l-23.552-62.464c-23.552 13.312-45.056 20.48-64.512 20.48-28.672 0-52.224-13.312-68.608-38.912s-25.6-61.44-25.6-105.472c0-46.080 6.144-80.896 18.432-105.472s29.696-36.864 53.248-36.864c12.288 0 24.576 2.048 37.888 5.12v93.184h-50.176v68.608h123.904v-209.92zM743.424 274.944c-22.528-24.576-54.272-36.864-94.208-36.864-35.84 0-64.512 7.168-87.040 20.48v70.656c9.216-7.168 21.504-13.312 36.864-18.432s28.672-8.192 41.984-8.192c39.936 0 60.416 23.552 60.416 69.632 0 43.008-19.456 65.536-58.368 65.536-15.36 0-31.744-3.072-49.152-9.216l-24.576 18.432 12.288 204.8h174.080v-67.584h-110.592l-5.12-88.064c9.216 2.048 21.504 3.072 34.816 3.072 30.72 0 55.296-10.24 73.728-31.744s27.648-51.2 27.648-88.064c1.024-44.032-10.24-78.848-32.768-104.448z" />
<glyph unicode="&#xe649;" glyph-name="G6" d="M667.648 445.952c-11.264 0-19.456-6.144-26.624-17.408s-10.24-25.6-10.24-43.008c0-27.648 3.072-48.128 9.216-62.464 7.168-14.336 15.36-21.504 27.648-21.504 11.264 0 20.48 6.144 26.624 18.432 7.168 12.288 10.24 31.744 10.24 57.344 0 21.504-3.072 37.888-9.216 50.176-7.168 12.288-15.36 18.432-27.648 18.432zM870.4 794.112h-716.8c-50.176 0-91.136-40.96-91.136-91.136v-510.976c0-50.176 40.96-91.136 91.136-91.136h715.776c50.176 0 91.136 40.96 91.136 91.136v512c0 49.152-40.96 90.112-90.112 90.112zM506.88 261.632c-35.84-15.36-72.704-22.528-112.64-22.528-47.104 0-83.968 18.432-109.568 54.272s-38.912 88.064-38.912 156.672c0 65.536 14.336 116.736 44.032 153.6s70.656 55.296 122.88 55.296c32.768 0 63.488-8.192 93.184-25.6l-23.552-62.464c-23.552 13.312-45.056 20.48-64.512 20.48-28.672 0-52.224-13.312-68.608-38.912s-25.6-61.44-25.6-105.472c0-46.080 6.144-80.896 18.432-105.472s29.696-36.864 53.248-36.864c12.288 0 24.576 2.048 37.888 5.12v93.184h-50.176v68.608h123.904v-209.92zM747.52 275.968c-20.48-25.6-47.104-37.888-81.92-37.888-36.864 0-64.512 15.36-82.944 45.056-19.456 30.72-28.672 74.752-28.672 134.144 0 82.944 13.312 144.384 38.912 182.272 25.6 38.912 65.536 57.344 118.784 57.344 8.192 0 16.384-1.024 25.6-1.024 8.192-1.024 14.336-2.048 19.456-3.072v-62.464c-13.312 3.072-25.6 4.096-37.888 4.096-21.504 0-38.912-5.12-52.224-14.336s-23.552-23.552-30.72-41.984-11.264-45.056-13.312-77.824h3.072c6.144 15.36 15.36 27.648 26.624 34.816 11.264 8.192 24.576 12.288 38.912 12.288 27.648 0 49.152-11.264 63.488-33.792 15.36-22.528 22.528-54.272 22.528-95.232 1.024-43.008-9.216-77.824-29.696-102.4z" />
</font>
</defs>
</svg>
