<svg id="Layer_1" data-name="Layer 1" xmlns="http://www.w3.org/2000/svg" viewBox="0 0 406.56 63.92"><defs><style>.cls-1{fill:#fff;}</style></defs><title>dk-eliminator-logo-new-01</title><path class="cls-1" d="M44,0H29.08v63.9H45.73Q56,63.92,56,54.67V12.3Q56,0,44,0Zm3.47,53.31q0,2.85-3.39,2.85h-6.4V7.76h6c2.55,0,3.83,1.55,3.83,4.63Z"/><rect class="cls-1" x="63.52" y="0.02" width="8.54" height="63.9"/><polygon class="cls-1" points="89.25 0.02 81.41 0.02 72.51 32.15 72.51 32.68 83.19 63.92 91.74 63.92 80.26 31.79 89.25 0.02"/><polygon class="cls-1" points="12.54 16 0 31.97 12.08 47.92 4 63.92 25.08 63.92 25.08 0 4 0 12.54 16"/><path class="cls-1" d="M406.56,30.92h-7.69a19.7,19.7,0,0,0,.42-4.2V11q0-11-9.79-11H372.77v30.9H365.2V11Q365.2,0,355,0h-8.19q-10.23,0-10.24,11v20H323.91V7.76h8.19V0H307.18V7.76h8.18V30.92H302.73V11q0-11-10.24-11h-6.41q-10.23,0-10.23,11v20h-7.56V0h-8.55V30.9L250.57,0H242v30.9h-8V0h-8.54v30.9h-8V0H208l-6.51,30.9h-2.81L192.19,0h-9.43v30.9h-8V0H166.2v30.9H149.56V0H141v30.9H122.24V7.76h12.64V0H113.7v30.9h-6.39v7h6.39v26h21.18V56.18H122.24V37.92H141v26h20.29V56.18H149.56V37.92H166.2v26h8.55v-26h8v26h8.54l-.55-26h3l3.06,14.43h6.59l3.05-14.43h3l-.56,26h8.55v-26h8v26H234v-26h8v26h8.54v-26h5l4.18,13.27V63.92h8.55v-26h7.56v26h8.54v-26h9.79v26h8.55v-26h12.63v26h8.55v-26h12.63V53.06q0,10.86,10.33,10.86h8q10.32,0,10.32-10.86V37.92h7.57v26h8.54V38.11h5.16l5.61,25.81h8.1l-5.83-26h12.21ZM381.31,7.76h5.61c2.55,0,3.83,1.55,3.83,4.63V26.18q0,4.63-3.83,4.63h-5.61ZM190.6,30.92l-.19-8.83,1.87,8.83Zm17.34,0,1.87-8.83-.18,8.83Zm42.63,0V22.09l2.79,8.83ZM284.39,11.5q0-3.74,3.74-3.74h2.32q3.74,0,3.73,3.74V30.92h-9.79Zm60.7,0c0-2.49,1.24-3.74,3.74-3.74h4q3.82,0,3.83,3.74V30.92H345.09Zm11.57,40.94q0,3.73-3.38,3.74h-4.36c-2.56,0-3.83-1.25-3.83-3.74V37.92h11.57Z"/></svg>