<svg id="Layer_1" data-name="Layer 1" xmlns="http://www.w3.org/2000/svg" viewBox="0 0 405.66 63.96"><defs><style>.cls-1{fill:#fff;}</style></defs><title>dk-eliminator-logo</title><path class="cls-1" d="M47,.06H32.08V64H48.73Q59,64,59,54.71V12.34Q59,.05,47,.06Zm3.47,53.31q0,2.85-3.39,2.85h-6.4V7.8h6c2.55,0,3.83,1.55,3.83,4.63Z"/><polygon class="cls-1" points="92.25 0.06 84.41 0.06 75.51 32.19 75.51 32.72 86.19 63.96 94.74 63.96 83.26 31.83 92.25 0.06"/><rect class="cls-1" x="66.52" y="0.06" width="8.54" height="63.9"/><path class="cls-1" d="M405.66,30H110.42v9h8.28V64h21.18V56.22H127.24V39H146V64h20.29V56.22H154.56V39H169.2V64h8.55V39h8V64h8.54l-.54-25h3.18l2.88,13.43h6.59L209.28,39h3.18l-.54,25h8.55V39h8V64H237V39h8V64h8.54V39h5.31l3.86,12.27V64h8.55V39h7.56V64h8.54V39h9.79V64h8.55V39h11.63V64h8.55V39h10.63V53.1Q336.54,64,346.87,64h8Q365.2,64,365.2,53.1V39h5.57V64h8.54V39h5.34l5.43,25h8.1l-5.6-25h13.08Zm-49,22.52q0,3.74-3.38,3.74h-4.36c-2.56,0-3.83-1.25-3.83-3.74V39h11.57Z"/><polygon class="cls-1" points="11.54 16 0 31.97 12.08 47.92 4 63.92 25.08 63.92 25.08 0 4 0 11.54 16"/><polygon class="cls-1" points="127.24 7.8 139.88 7.8 139.88 0.06 118.69 0.06 118.69 23.07 127.24 23.07 127.24 7.8"/><rect class="cls-1" x="146.02" y="0.06" width="8.54" height="23.01"/><rect class="cls-1" x="169.2" y="0.06" width="8.54" height="23.01"/><polygon class="cls-1" points="195.19 0.06 185.76 0.06 185.76 23.07 200.04 23.07 195.19 0.06"/><polygon class="cls-1" points="220.47 0.06 211.03 0.06 206.18 23.07 220.47 23.07 220.47 0.06"/><rect class="cls-1" x="228.48" y="0.06" width="8.54" height="23.01"/><polygon class="cls-1" points="253.57 0.06 245.03 0.06 245.03 23.07 260.4 23.07 253.57 0.06"/><rect class="cls-1" x="262.74" y="0.06" width="8.54" height="23.01"/><path class="cls-1" d="M287.39,11.54q0-3.73,3.74-3.74h2.32q3.74,0,3.73,3.74V23.07h8.55V11Q305.73.06,295.49.06h-6.41q-10.23,0-10.23,11V23.07h8.54Z"/><polygon class="cls-1" points="317.36 23.07 325.91 23.07 325.91 7.8 334.1 7.8 334.1 0.06 309.18 0.06 309.18 7.8 317.36 7.8 317.36 23.07"/><path class="cls-1" d="M345.09,11.54c0-2.49,1.24-3.74,3.74-3.74h4q3.82,0,3.83,3.74V23.07h8.54V11Q365.2.06,355,.06h-8.19q-10.23,0-10.24,11V23.07h8.55Z"/><path class="cls-1" d="M379.31,7.8h5.61c2.55,0,3.83,1.55,3.83,4.63V23.07h8.54V11Q397.29.06,387.5.06H370.77v23h8.54Z"/></svg>